# Blender 5.0.1
# www.blender.org
mtllib Cube_and_sheet.mtl
o Cube
v -5.017823 5.017817 -5.017820
v -5.017817 -5.017823 -5.017821
v 5.017817 5.017824 -5.017819
v 5.017824 -5.017817 -5.017820
v -5.017824 5.017817 5.017820
v -5.017817 -5.017824 5.017819
v 5.017817 5.017823 5.017821
v 5.017823 -5.017817 5.017820
v 4.386375 5.017823 2.999980
v 4.386375 5.017823 1.000022
v 4.386382 -5.017817 2.999700
v 4.386382 -5.017817 1.000300
v 4.794854 5.017823 1.413974
v 4.386375 5.017823 2.750090
v 4.855361 -5.017817 2.526835
v 5.017730 -5.017817 1.639892
v 4.386379 0.000003 2.999840
v 4.386379 0.000003 1.000161
v 4.386379 0.001405 2.500129
v 4.386379 0.001404 1.500290
v 4.386375 5.017823 -1.000020
v 4.386375 5.017823 -2.999978
v 4.386382 -5.017817 -1.000300
v 4.386382 -5.017817 -2.999700
v -4.393624 5.017817 2.999700
v -4.393624 5.017817 1.000300
v -4.393618 -5.017823 2.999978
v -5.017817 -5.017824 2.370394
v -5.017817 -5.017824 1.632584
v -4.393618 -5.017823 1.000020
v -4.393624 5.017817 -1.000300
v -4.393624 5.017817 -2.999700
v -4.393618 -5.017823 -1.000022
v -4.393618 -5.017823 -2.999980
v -5.017817 -5.017823 -2.367416
v -5.017817 -5.017824 -1.629606
v 5.017823 -4.386376 2.999979
v 5.017824 -5.017817 2.363089
v 5.017823 -4.386376 2.363030
v 5.017824 -5.017817 1.639924
v 5.017823 -4.386375 1.000021
v 5.017823 -4.386375 1.639982
v 4.386382 -5.017817 1.639942
v 5.017762 -5.017817 2.363089
v 4.386382 -5.017817 2.363088
v -4.393618 -5.017823 2.363043
v 5.017762 -5.017817 1.639924
v -4.393618 -5.017823 1.639986
v -5.017817 -5.010516 1.632584
v -5.017817 -4.386382 1.632588
v -5.017817 -4.386382 1.000299
v -5.017817 -4.386382 2.999699
v -5.017817 -5.010516 2.370394
v -5.017817 -4.386382 2.370390
v 4.838627 -4.838778 2.543713
v 4.796344 -4.386376 2.586359
v 4.386382 -4.386618 2.999718
v 4.386382 -4.386376 2.999718
v 5.017731 -5.017786 1.639892
v 4.386382 -4.386617 1.000282
v 4.386382 -4.386376 1.000282
v 4.386382 -4.386376 2.000000
v -4.393860 -4.386382 2.999717
v -4.393859 -4.386382 1.000282
v -4.393618 -4.386382 1.999999
v -4.393618 -4.386382 2.999717
v -4.393618 -4.386382 1.000282
v 5.017824 -5.017817 -2.360076
v 5.017823 -4.386375 -2.999979
v 5.017823 -4.386375 -2.360017
v 5.017824 -5.017817 -1.636912
v 5.017823 -4.386375 -1.636970
v 5.017823 -4.386375 -1.000021
v 5.017762 -5.017817 -1.636912
v 4.386382 -5.017817 -1.636912
v 5.017762 -5.017817 -2.360076
v 4.386382 -5.017817 -2.360059
v -4.393618 -5.017823 -1.636957
v -4.393618 -5.017823 -2.360014
v -5.017817 -4.386382 -1.000301
v -5.017817 -5.010516 -1.629606
v -5.017817 -4.386382 -1.629610
v -5.017817 -4.386382 -2.999701
v -5.017817 -5.010516 -2.367416
v -5.017817 -4.386382 -2.367412
v 4.386382 -4.386618 -1.000282
v 4.386382 -4.386376 -1.000282
v 4.386382 -4.386617 -2.999718
v 4.386382 -4.386376 -2.999718
v 4.386382 -4.386376 -2.000000
v -4.393860 -4.386382 -1.000283
v -4.393859 -4.386382 -2.999718
v -4.393618 -4.386382 -2.000000
v -4.393618 -4.386382 -1.000283
v -4.393618 -4.386382 -2.999718
v -5.017824 5.017817 1.632585
v -5.017758 5.017817 1.632585
v -5.017824 5.017817 2.370395
v -5.017758 5.017817 2.370395
v 5.017817 5.017823 2.370329
v 5.010639 5.017823 2.370330
v -4.393624 5.017817 2.370395
v -4.393624 5.017817 1.632602
v 4.386375 5.017823 2.370347
v 4.386375 5.017823 1.632652
v 5.017817 5.017824 1.632652
v 5.010640 5.017824 1.632652
v 5.017817 4.393624 2.363086
v 5.017817 4.393624 2.999701
v 5.017817 4.393624 1.639929
v 5.017817 4.393624 1.000301
v -5.017823 4.393618 1.632647
v -5.017823 4.393618 1.000021
v -5.017823 4.393618 2.999979
v -5.017823 4.393618 2.370332
v 4.744041 4.393624 1.362497
v 4.775720 4.782779 1.394590
v 4.386376 4.393624 2.999718
v 4.386376 4.393624 2.718987
v 4.386376 4.658937 2.732207
v 4.386376 4.393624 2.000000
v 4.386376 4.393624 1.000283
v 4.386376 4.393624 1.719025
v 4.386618 4.393624 2.999718
v 4.386617 4.393624 1.000283
v -4.393624 4.393618 2.999717
v -4.393624 4.393860 2.999717
v -4.393624 4.393618 1.000283
v -4.393624 4.393859 1.000283
v -4.393624 4.393618 2.000000
v -4.393624 5.017817 -1.629605
v 5.017817 5.017824 -2.367348
v 5.010641 5.017824 -2.367348
v -5.017824 5.017817 -2.367415
v -5.017758 5.017817 -2.367415
v 4.386375 5.017823 -2.367348
v -4.393624 5.017817 -2.367398
v 5.017817 5.017824 -1.629671
v 5.010639 5.017824 -1.629671
v 4.386375 5.017823 -1.629653
v -5.017758 5.017817 -1.629605
v -5.017824 5.017817 -1.629605
v 5.017817 4.393624 -2.999699
v 5.017817 4.393624 -2.360071
v 5.017817 4.393624 -1.636915
v 5.017817 4.393624 -1.000299
v -5.017823 4.393618 -1.629667
v -5.017823 4.393618 -1.000021
v -5.017823 4.393618 -2.367353
v -5.017823 4.393618 -2.999979
v 4.386618 4.393624 -1.000282
v 4.386617 4.393624 -2.999717
v 4.386376 4.393624 -1.999999
v 4.386376 4.393624 -1.000282
v 4.386376 4.393624 -2.999717
v -4.393624 4.393618 -1.000283
v -4.393624 4.393860 -1.000283
v -4.393624 4.393618 -2.999717
v -4.393624 4.393859 -2.999717
v -4.393624 4.393618 -2.000000
v 2.363029 -5.017819 5.017820
v 2.999702 -4.386377 5.017820
v 1.000302 -4.386378 5.017820
v 2.363091 -5.017819 2.363078
v 1.639989 -5.017819 2.363074
v 2.363091 -5.017819 1.639952
v 1.639989 -5.017819 1.639955
v 2.363092 -5.017819 -1.636922
v 1.639989 -5.017819 -1.636926
v 2.363092 -5.017818 -2.360048
v 1.639989 -5.017819 -2.360044
v 2.999982 -4.386376 -5.017821
v 1.000024 -4.386378 -5.017821
v 1.000246 -4.386378 2.999867
v 2.999758 -4.386377 2.999923
v 2.350581 -4.386377 2.999905
v 2.000002 -4.386378 2.999895
v 1.350827 -4.386378 2.999877
v 1.000191 -4.386378 1.000132
v 2.999814 -4.386377 1.000077
v 2.450229 -4.386377 1.000092
v 2.000002 -4.386377 1.000105
v 1.450416 -4.386378 1.000120
v 1.000135 -4.386378 -1.000133
v 2.999870 -4.386377 -1.000077
v 2.549895 -4.386377 -1.000090
v 2.000003 -4.386377 -1.000105
v 1.550029 -4.386378 -1.000118
v 1.000080 -4.386378 -2.999867
v 2.999926 -4.386376 -2.999923
v 2.649543 -4.386377 -2.999913
v 2.000003 -4.386377 -2.999895
v 1.649619 -4.386377 -2.999885
v 2.999786 -4.386377 2.000000
v 2.999894 -4.386377 -1.842130
v 2.999870 -4.386377 -1.000283
v 2.999898 -4.386377 -2.000000
v 2.999921 -4.386376 -2.841851
v 1.000229 -4.386378 2.385557
v 1.000219 -4.386378 2.000000
v 1.000246 -4.386378 2.999717
v 1.000202 -4.386378 1.385843
v 1.000108 -4.386378 -2.000000
v 2.439172 -4.386377 1.221997
v 2.000002 -4.386378 2.999717
v 1.400621 -4.386378 2.000000
v 2.350591 -4.386377 2.999718
v 2.000002 -4.386377 1.272003
v 1.433664 -4.386378 1.336488
v 2.549904 -4.386377 -1.000283
v 2.000003 -4.386377 -1.000283
v 1.550037 -4.386378 -1.000283
v 2.400405 -4.386377 2.000000
v 2.000002 -4.386378 2.000000
v 1.383594 -4.386378 2.341906
v 2.389073 -4.386377 2.227420
v 2.000002 -4.386378 2.271720
v 1.350835 -4.386378 2.999717
v 2.589524 -4.386377 -1.795404
v 2.000003 -4.386377 -1.728280
v 1.583932 -4.386378 -1.680905
v 2.599719 -4.386377 -2.000000
v 2.000003 -4.386377 -2.000000
v 1.599824 -4.386377 -2.000000
v 2.639623 -4.386377 -2.800826
v 2.000003 -4.386377 -2.727997
v 1.634003 -4.386377 -2.686323
v -1.636971 -5.017822 5.017820
v -1.000298 -4.386380 5.017820
v -2.999698 -4.386381 5.017820
v -1.636909 -5.017822 2.363057
v -2.360011 -5.017822 2.363053
v -1.636909 -5.017821 1.639972
v -2.360011 -5.017822 1.639976
v -1.636909 -5.017821 -1.636943
v -2.360010 -5.017822 -1.636947
v -1.636909 -5.017821 -2.360028
v -2.360010 -5.017822 -2.360024
v -1.000018 -4.386379 -5.017821
v -2.999976 -4.386380 -5.017821
v -2.999754 -4.386381 2.999756
v -1.000242 -4.386380 2.999811
v -1.649413 -4.386380 2.999793
v -1.999998 -4.386380 2.999783
v -2.649168 -4.386381 2.999765
v -2.999809 -4.386381 1.000243
v -1.000186 -4.386380 1.000188
v -1.549777 -4.386380 1.000203
v -1.999997 -4.386380 1.000216
v -2.549590 -4.386381 1.000231
v -2.999865 -4.386381 -1.000244
v -1.000130 -4.386379 -1.000189
v -1.450100 -4.386380 -1.000201
v -1.999997 -4.386380 -1.000217
v -2.999920 -4.386381 -2.999757
v -1.000074 -4.386379 -2.999812
v -1.999997 -4.386380 -2.999784
v -2.350387 -4.386380 -2.999774
v -1.000214 -4.386380 2.000000
v -1.000102 -4.386379 -2.000000
v -1.000120 -4.386379 -1.370931
v -1.000092 -4.386379 -2.370733
v -2.999758 -4.386381 2.841008
v -2.999802 -4.386381 1.258618
v -2.999782 -4.386381 1.999999
v -2.999779 -4.386381 2.099633
v -2.999892 -4.386381 -2.000000
v -1.599595 -4.386380 2.000000
v -1.400281 -4.386380 -2.000000
v -1.427678 -4.386380 -1.450189
v -2.369077 -4.386380 -2.624473
v -1.378315 -4.386379 -2.440837
v -2.400176 -4.386380 -2.000000
v -1.999997 -4.386380 -2.000000
v -1.999997 -4.386380 -1.556283
v -1.999997 -4.386380 -2.556064
v -1.609511 -4.386380 2.199010
v -2.639217 -4.386381 2.799955
v -1.633751 -4.386380 2.685470
v -1.999998 -4.386380 2.171098
v -2.599379 -4.386381 1.999999
v -1.999998 -4.386380 2.000000
v -1.999998 -4.386380 2.727172
v -2.566458 -4.386381 1.338936
v -1.575804 -4.386380 1.522548
v -1.999997 -4.386380 1.443926
v -2.418411 -4.386380 -1.633847
v -2.605743 -4.386381 2.127799
v -1.629609 5.017819 5.017821
v -2.367419 5.017818 5.017821
v -1.629608 5.017819 2.370380
v -2.367352 5.017818 2.370384
v -1.629608 5.017819 -1.629620
v -2.367352 5.017819 -1.629616
v -1.629608 5.017819 1.632618
v -2.367352 5.017819 1.632614
v -1.629674 5.017820 -5.017820
v -1.629608 5.017819 -2.367382
v -2.367352 5.017819 -2.367386
v -1.000024 4.393620 5.017821
v -2.999982 4.393619 5.017821
v -1.000302 4.393620 -5.017820
v -2.999702 4.393620 -5.017820
v -1.000080 4.393620 2.999867
v -1.350465 4.393620 2.999877
v -2.000003 4.393620 2.999895
v -2.350386 4.393619 2.999905
v -2.999926 4.393619 2.999923
v -1.000135 4.393620 1.000133
v -1.450109 4.393620 1.000120
v -2.000003 4.393620 1.000105
v -2.449978 4.393619 1.000093
v -2.999870 4.393619 1.000077
v -1.000191 4.393620 -1.000132
v -1.549777 4.393620 -1.000117
v -2.000003 4.393620 -1.000105
v -2.549588 4.393620 -1.000090
v -2.999814 4.393619 -1.000077
v -1.000246 4.393620 -2.999867
v -1.649422 4.393620 -2.999885
v -2.000002 4.393620 -2.999895
v -2.649180 4.393620 -2.999913
v -2.999758 4.393619 -2.999923
v -1.000083 4.393620 2.891213
v -1.000125 4.393620 1.386677
v -1.000108 4.393620 2.000000
v -1.000100 4.393620 2.277893
v -1.000219 4.393620 -2.000000
v -2.999898 4.393619 2.000000
v -2.999810 4.393619 -1.158986
v -2.999763 4.393619 -2.841008
v -2.999786 4.393619 -2.000000
v -1.388023 4.393620 2.246126
v -1.400287 4.393620 2.000000
v -2.000003 4.393620 2.196012
v -2.392019 4.393619 2.163910
v -2.400182 4.393619 2.000000
v -1.565830 4.393620 -1.322264
v -2.639222 4.393620 -2.799956
v -1.633756 4.393620 -2.685471
v -2.000002 4.393620 -2.727172
v -2.000003 4.393620 -2.000000
v -2.000003 4.393620 -1.272827
v -2.559995 4.393620 -1.209065
v -2.000003 4.393620 2.000000
v -2.438884 4.393619 1.222855
v -2.000003 4.393620 1.196228
v -1.433305 4.393620 1.337354
v -2.353644 4.393619 2.934491
v -2.000003 4.393620 2.923184
v -1.355313 4.393620 2.902571
v 2.370391 5.017821 5.017821
v 1.632581 5.017821 5.017821
v 2.370391 5.017822 2.370358
v 1.632648 5.017821 2.370362
v 2.370391 5.017822 1.632641
v 1.632648 5.017821 1.632636
v 2.370392 5.017822 -1.629642
v 1.632648 5.017821 -1.629638
v 2.370326 5.017822 -5.017820
v 2.370392 5.017822 -2.367359
v 1.632648 5.017822 -2.367363
v 2.999976 4.393622 5.017821
v 1.000018 4.393621 5.017821
v 2.999698 4.393623 -5.017820
v 1.000298 4.393622 -5.017820
v 2.999920 4.393623 2.999757
v 2.649530 4.393622 2.999766
v 1.999997 4.393622 2.999784
v 1.649608 4.393622 2.999794
v 1.000074 4.393621 2.999812
v 2.999865 4.393623 1.000244
v 2.549896 4.393622 1.000232
v 1.999997 4.393622 1.000217
v 1.550028 4.393622 1.000204
v 1.000130 4.393621 1.000189
v 2.999809 4.393623 -1.000243
v 2.450217 4.393623 -1.000228
v 1.999997 4.393622 -1.000216
v 1.000186 4.393622 -1.000188
v 2.999754 4.393623 -2.999756
v 2.350583 4.393623 -2.999774
v 1.999998 4.393622 -2.999783
v 1.000242 4.393622 -2.999811
v 2.999867 4.393623 1.099743
v 2.999882 4.393623 1.633478
v 2.999892 4.393623 2.000000
v 2.999907 4.393623 2.533921
v 2.999782 4.393623 -1.999999
v 1.000102 4.393621 2.000000
v 1.000203 4.393622 -1.628734
v 1.000224 4.393622 -2.371269
v 1.000214 4.393622 -2.000000
v 2.623816 4.393622 2.483721
v 1.378629 4.393622 -2.441499
v 1.400616 4.393622 -2.000000
v 1.999998 4.393622 -2.556820
v 2.369240 4.393623 -2.625350
v 1.999998 4.393622 -2.000000
v 1.999997 4.393622 -1.443179
v 1.423013 4.393622 -1.550263
v 2.432142 4.393623 -1.362975
v 1.999997 4.393622 2.000000
v 2.599713 4.393622 2.000000
v 1.599818 4.393622 2.000000
v 2.556440 4.393622 1.131551
v 2.580159 4.393622 1.607581
v -4.386379 -1.000302 5.017820
v -4.386378 -2.999702 5.017820
v -4.386378 -1.000022 -5.017821
v -4.386377 -2.999980 -5.017821
v -5.017819 -2.363091 1.632602
v -5.017819 -1.639987 1.632607
v -5.017819 -2.363091 -1.629623
v -5.017819 -1.639987 -1.629628
v -5.017819 -2.363091 -2.367398
v -5.017819 -1.639987 -2.367393
v -5.017819 -2.363091 2.370377
v -5.017819 -1.639988 2.370372
v -4.393619 -2.992456 2.999922
v -4.393620 -1.007585 2.999867
v -4.393619 -2.992512 1.000077
v -4.393620 -1.007529 1.000132
v -4.393619 -2.992484 1.999999
v -4.393620 -1.007557 2.000000
v -4.393619 -2.992567 -1.000078
v -4.393620 -1.007473 -1.000133
v -4.393619 -2.992623 -2.999923
v -4.393620 -1.007418 -2.999868
v -4.393619 -2.992595 -2.000000
v -4.393620 -1.007445 -2.000000
v -4.386380 2.999698 5.017820
v -4.386380 1.000298 5.017820
v -4.386379 2.999978 -5.017821
v -4.386379 1.000020 -5.017821
v -5.017821 1.636910 1.632629
v -5.017822 2.360012 1.632633
v -5.017821 1.636910 -1.629649
v -5.017822 2.360012 -1.629654
v -5.017821 1.636910 -2.367371
v -5.017822 2.360012 -2.367367
v -5.017821 1.636910 2.370351
v -5.017822 2.360012 2.370346
v -4.393621 1.007545 2.999811
v -4.393623 2.992414 2.999756
v -4.393621 1.007489 1.000188
v -4.393623 2.992470 1.000243
v -4.393621 1.007517 2.000000
v -4.393623 2.992442 2.000000
v -4.393621 1.007434 -1.000189
v -4.393623 2.992526 -1.000244
v -4.393621 1.007378 -2.999812
v -4.393623 2.992581 -2.999756
v -4.393621 1.007406 -2.000000
v -4.393623 2.992554 -2.000000
v 5.017819 1.629606 2.363068
v 5.017819 2.367351 2.363073
v 5.017819 1.629606 5.017821
v 5.017818 2.367417 5.017821
v 5.017819 1.629606 -2.360054
v 5.017819 2.367351 -2.360059
v 5.017819 1.629606 1.639946
v 5.017819 2.367351 1.639941
v 5.017819 1.629606 -1.636932
v 5.017819 2.367351 -1.636927
v 4.393620 1.000022 5.017821
v 4.393620 2.999980 5.017821
v 4.393621 1.000302 -5.017820
v 4.393620 2.999702 -5.017820
v 4.474427 1.081608 1.089359
v 4.612525 2.778037 1.229262
v 4.393620 2.000001 2.992593
v 4.393620 2.999924 2.992620
v 4.393620 1.000079 2.992565
v 4.393620 1.000134 1.007472
v 4.393620 2.000001 1.007445
v 4.393620 2.999869 1.007418
v 4.393620 2.000001 -1.007407
v 4.393620 2.999813 -1.007380
v 4.393620 1.000190 -1.007434
v 4.393620 2.000002 -2.992555
v 4.393620 2.999758 -2.992582
v 4.393620 1.000245 -2.992528
v 5.017821 -2.370393 5.017821
v 5.017821 -1.632584 5.017821
v 5.017822 -2.370393 2.363043
v 5.017821 -1.632650 2.363048
v 5.017822 -2.370393 -2.360030
v 5.017821 -1.632649 -2.360034
v 5.017822 -2.370393 1.639970
v 5.017821 -1.632650 1.639966
v 5.017822 -2.370393 -1.636957
v 5.017821 -1.632649 -1.636953
v 4.393621 -2.999978 5.017821
v 4.393621 -1.000020 5.017821
v 4.393622 -1.000298 -5.017820
v 4.393622 -2.999698 -5.017820
v 4.393622 -1.999999 2.992482
v 4.393621 -1.000076 2.992510
v 4.643238 -2.748230 2.740778
v 4.393622 -2.999922 2.992455
v 4.488871 -1.096605 2.896468
v 4.393622 -2.999866 1.007582
v 4.393622 -1.999999 1.007555
v 4.393621 -1.000131 1.007528
v 4.393622 -1.999998 -1.007518
v 4.393621 -1.000187 -1.007490
v 4.393622 -2.999810 -1.007545
v 4.393622 -2.999754 -2.992420
v 4.393621 -1.000242 -2.992473
v 4.393622 -1.999998 -2.992447
v 5.017820 1.000024 -4.393620
v 5.017820 1.629657 -4.393620
v 5.017820 1.629609 -5.017820
v 5.017819 2.367352 -4.393620
v 5.017819 2.999982 -4.393620
v 5.017819 2.367418 -5.017820
v 5.017756 1.629609 -5.017820
v 5.017754 2.367418 -5.017820
v 4.393621 1.629608 -5.017820
v 4.393620 2.367401 -5.017820
v -5.017821 1.629668 -5.017821
v -5.010641 1.629668 -5.017821
v -4.386379 1.629651 -5.017821
v -4.386379 2.367346 -5.017821
v -5.017821 2.367346 -5.017821
v -5.010646 2.367346 -5.017821
v -5.017820 1.000297 -4.393621
v -5.017821 1.636910 -4.393621
v -5.017821 2.360060 -4.393621
v -5.017822 2.999697 -4.393621
v -4.386619 1.000280 -4.393621
v -4.386622 2.999715 -4.393621
v -4.386379 1.000280 -4.393621
v -4.386379 1.999997 -4.393621
v -4.386379 1.999999 -4.393621
v -4.386379 2.999715 -4.393621
v 4.393621 1.000284 -4.393862
v 4.393621 1.000284 -4.393620
v 4.393620 2.999719 -4.393863
v 4.393620 2.999719 -4.393620
v 4.393620 2.000002 -4.393620
v 4.393620 2.000003 -4.393620
v 5.017822 -1.632649 -4.393620
v 5.017821 -1.000018 -4.393620
v 5.017822 -1.632581 -5.017820
v 5.017823 -2.999976 -4.393620
v 5.017822 -2.370342 -4.393620
v 5.017822 -2.370391 -5.017820
v 5.017755 -1.632581 -5.017820
v 4.393622 -2.370392 -5.017820
v 5.017757 -2.370391 -5.017820
v 4.393622 -1.632599 -5.017820
v -5.017818 -2.370332 -5.017821
v -5.010640 -2.370332 -5.017821
v -4.386377 -2.370348 -5.017821
v -4.386378 -1.632654 -5.017821
v -5.017819 -1.632654 -5.017821
v -5.010644 -1.632654 -5.017821
v -5.017819 -1.639940 -4.393621
v -5.017819 -1.000303 -4.393621
v -5.017818 -2.999703 -4.393621
v -5.017818 -2.363091 -4.393621
v -4.386618 -2.999721 -4.393621
v -4.386621 -1.000285 -4.393621
v -4.386377 -2.999721 -4.393621
v -4.386377 -2.000003 -4.393621
v -4.386377 -2.000001 -4.393621
v -4.386378 -1.000285 -4.393621
v 4.393622 -2.999716 -4.393862
v 4.393622 -2.999716 -4.393620
v 4.393622 -1.000281 -4.393863
v 4.393622 -1.000281 -4.393620
v 4.393622 -1.999998 -4.393620
v 4.393622 -1.999997 -4.393620
v 5.017818 2.367417 5.010514
v 5.017818 2.367402 4.386379
v 5.017818 2.999703 4.386379
v 5.017819 1.629606 5.010510
v 5.017819 1.000303 4.386379
v 5.017819 1.629606 4.386379
v 4.393620 1.636959 5.017821
v 4.393620 2.360016 5.017821
v -5.017822 1.636908 5.017820
v -5.017759 1.636908 5.017820
v -4.386380 1.636909 5.017820
v -4.386380 2.360055 5.017820
v -5.017822 2.360073 5.017820
v -5.017762 2.360073 5.017820
v -5.017822 1.636957 4.386378
v -5.017821 1.000018 4.386378
v -5.017823 2.999976 4.386378
v -5.017822 2.360011 4.386378
v -4.386380 1.000281 4.386621
v -4.386380 1.000281 4.386378
v -4.386380 2.999716 4.386618
v -4.386380 2.999716 4.386378
v -4.386380 1.999997 4.386378
v -4.386380 1.999998 4.386378
v 4.393864 1.000285 4.386379
v 4.393859 2.999720 4.386379
v 4.393620 2.000001 4.386379
v 4.393620 1.000285 4.386379
v 4.393620 2.999720 4.386379
v 4.393620 2.000003 4.386379
v 5.017821 -2.370393 5.010511
v 5.017821 -2.370393 4.386379
v 5.017822 -2.999697 4.386379
v 5.017821 -1.632584 5.010515
v 5.017821 -1.632599 4.386379
v 5.017820 -1.000297 4.386379
v 4.393621 -2.363041 5.017821
v 4.393621 -1.639983 5.017821
v -5.017819 -2.363092 5.017820
v -5.017757 -2.363092 5.017820
v -4.386378 -2.363091 5.017820
v -4.386379 -1.639944 5.017820
v -5.017820 -1.639927 5.017820
v -5.017760 -1.639927 5.017820
v -5.017819 -2.999982 4.386378
v -5.017819 -2.363044 4.386378
v -5.017820 -1.639988 4.386378
v -5.017820 -1.000024 4.386378
v -4.386378 -2.999719 4.386621
v -4.386378 -2.999719 4.386378
v -4.386379 -1.000284 4.386618
v -4.386379 -1.000284 4.386378
v -4.386378 -2.000003 4.386378
v -4.386378 -2.000002 4.386378
v 4.393865 -2.999714 4.386379
v 4.393860 -1.000280 4.386379
v 4.393621 -1.999999 4.386379
v 4.393621 -2.999714 4.386379
v 4.393621 -1.000280 4.386379
v 4.393621 -1.999997 4.386379
v 1.629671 5.017822 -5.017820
v 1.632649 5.017822 -4.393620
v 1.000300 5.017821 -4.393620
v 2.370326 5.017822 -5.014880
v 2.370341 5.017822 -4.393620
v 2.999699 5.017823 -4.393620
v 1.639942 -5.017819 -4.393621
v 1.000021 -5.017819 -4.393621
v 1.629606 -5.017819 -5.017821
v 2.363092 -5.017818 -4.393621
v 2.999979 -5.017818 -4.393621
v 2.367416 -5.017818 -5.017821
v 2.367349 -1.632612 -5.017820
v 1.629605 -1.632616 -5.017820
v 1.629605 1.629622 -5.017820
v 2.367349 1.629618 -5.017820
v 2.367415 -5.013532 -5.017821
v 1.629605 -2.370378 -5.017820
v 2.367349 -2.370382 -5.017820
v 2.367398 -4.386377 -5.017821
v 1.629606 -5.007634 -5.017821
v 1.629606 -4.386377 -5.017821
v 1.629654 4.393622 -5.017820
v 2.367349 4.393623 -5.017820
v 2.367349 2.367388 -5.017820
v 1.629605 2.367383 -5.017820
v 1.629671 5.014883 -5.017820
v 2.999961 -4.386379 -4.393621
v 1.000041 -4.386378 -4.393621
v 1.000041 -4.386378 -4.393624
v 2.999961 -4.386376 -4.393621
v 2.000003 -4.386377 -4.393621
v 2.000000 -4.386377 -4.393621
v 2.999715 4.393623 -4.393622
v 2.999715 4.393623 -4.393620
v 1.000282 4.393624 -4.393620
v 1.999998 4.393622 -4.393620
v 2.000000 4.393622 -4.393620
v 1.000282 4.393622 -4.393620
v 2.999811 1.000079 -4.393621
v 2.549585 1.000091 -4.393621
v 1.000188 1.000133 -4.393621
v 1.549775 1.000118 -4.393621
v 2.000000 1.000106 -4.393621
v 2.999756 2.999925 -4.393621
v 2.649177 2.999915 -4.393621
v 1.000244 2.999868 -4.393621
v 1.649420 2.999887 -4.393621
v 2.000000 2.999897 -4.393621
v 2.999923 -2.999921 -4.393621
v 2.350384 -2.999903 -4.393621
v 1.000077 -2.999867 -4.393621
v 1.350462 -2.999876 -4.393621
v 2.000000 -2.999894 -4.393621
v 2.999867 -1.000075 -4.393621
v 2.449975 -1.000091 -4.393621
v 1.000133 -1.000132 -4.393621
v 1.450107 -1.000119 -4.393621
v 2.000000 -1.000103 -4.393621
v 1.000088 -2.613319 -4.393621
v 1.000116 -1.613604 -4.393621
v 1.000133 -1.000283 -4.393621
v 1.000105 -1.999999 -4.393621
v 1.000216 2.000001 -4.393621
v 2.999895 -1.999998 -4.393621
v 2.999807 1.158988 -4.393621
v 2.999784 2.000001 -4.393621
v 2.999784 2.000002 -4.393621
v 2.999784 2.000002 -4.393621
v 2.999760 2.841010 -4.393621
v 1.450098 -1.000282 -4.393621
v 1.599597 2.000002 -4.393621
v 1.367638 -2.655169 -4.393621
v 2.599381 2.000002 -4.393621
v 1.599597 2.000001 -4.393621
v 2.000000 2.000001 -4.393621
v 2.000000 2.000002 -4.393621
v 2.599381 2.000002 -4.393621
v 2.000000 -1.000282 -4.393621
v 2.000000 -2.727172 -4.393621
v 2.639219 2.799957 -4.393621
v 1.633753 2.685471 -4.393621
v 2.000000 2.727173 -4.393621
v 1.400284 -2.000000 -4.393621
v 2.000000 -2.000000 -4.393621
v 2.361914 -2.768380 -4.393621
v 1.400284 -1.999999 -4.393621
v 2.000000 -1.999999 -4.393621
v 2.400179 -1.999998 -4.393621
v 1.417171 -1.661091 -4.393621
v 2.000000 -1.727453 -4.393621
v 2.411419 -1.774299 -4.393621
v 2.449966 -1.000282 -4.393621
v 1.599597 2.000000 -4.393621
v 1.565827 1.322264 -4.393621
v 2.000000 1.272828 -4.393621
v 2.000000 2.000000 -4.393621
v 2.559992 1.209066 -4.393621
v 2.599381 2.000001 -4.393621
v 2.400179 -1.999999 -4.393621
v -1.000300 5.017820 -4.393620
v -1.629674 5.017820 -5.014880
v -1.629659 5.017819 -4.393620
v -2.367352 5.017819 -4.393620
v -2.999700 5.017819 -4.393620
v -2.370329 5.017819 -5.017820
v -1.000021 -5.017821 -4.393621
v -1.636908 -5.017821 -4.393621
v -1.632585 -5.017821 -5.017821
v -2.360058 -5.017822 -4.393621
v -2.999979 -5.017822 -4.393621
v -2.370394 -5.017821 -5.017821
v -1.632651 1.629638 -5.017820
v -2.370395 1.629641 -5.017820
v -1.632651 -1.632637 -5.017820
v -2.370395 -1.632641 -5.017820
v -1.632585 -5.013534 -5.017821
v -2.370394 -2.370358 -5.017820
v -1.632651 -2.370362 -5.017820
v -2.370394 -5.007636 -5.017821
v -1.632602 -4.386379 -5.017821
v -2.370394 -4.386380 -5.017821
v -1.632651 2.367363 -5.017820
v -2.370395 2.367358 -5.017820
v -2.370329 5.014880 -5.017820
v -2.370346 4.393620 -5.017820
v -1.632651 4.393620 -5.017820
v -1.000038 -4.386382 -4.393621
v -2.999959 -4.386380 -4.393621
v -2.999959 -4.386380 -4.393624
v -1.999997 -4.386380 -4.393621
v -1.000038 -4.386379 -4.393621
v -2.000000 -4.386380 -4.393621
v -1.000285 4.393620 -4.393622
v -1.000285 4.393620 -4.393620
v -2.999718 4.393621 -4.393620
v -2.000000 4.393620 -4.393620
v -2.000002 4.393620 -4.393620
v -2.999718 4.393620 -4.393620
v -1.000188 1.000188 -4.393621
v -1.450409 1.000200 -4.393621
v -2.999812 1.000242 -4.393621
v -2.000000 1.000215 -4.393621
v -1.350828 2.999801 -4.393621
v -2.000000 2.999783 -4.393621
v -1.000244 2.999811 -4.393621
v -2.999756 2.999754 -4.393621
v -1.000077 -2.999812 -4.393621
v -1.649611 -2.999795 -4.393621
v -2.999923 -2.999758 -4.393621
v -2.649533 -2.999768 -4.393621
v -2.000000 -2.999785 -4.393621
v -1.550030 -1.000205 -4.393621
v -2.000000 -1.000217 -4.393621
v -1.000133 -1.000189 -4.393621
v -2.999867 -1.000246 -4.393621
v -2.549899 -1.000233 -4.393621
v -2.999916 -2.742396 -4.393621
v -2.999895 -2.000002 -4.393621
v -2.999892 -1.900542 -4.393621
v -2.999872 -1.158156 -4.393621
v -2.999784 1.999998 -4.393621
v -1.000105 -2.000000 -4.393621
v -1.000199 1.371449 -4.393621
v -1.000216 1.999999 -4.393621
v -1.000216 2.000000 -4.393621
v -1.000234 2.628538 -4.393621
v -1.400619 1.999999 -4.393621
v -2.418603 1.634735 -4.393621
v -2.381862 2.372079 -4.393621
v -1.427967 1.450852 -4.393621
v -2.400403 1.999998 -4.393621
v -1.372761 2.559389 -4.393621
v -1.400619 2.000000 -4.393621
v -2.000000 1.557033 -4.393621
v -2.000000 1.999999 -4.393621
v -2.000000 2.442961 -4.393621
v -1.624076 -2.487042 -4.393621
v -2.599716 -2.000002 -4.393621
v -2.000000 -2.556813 -4.393621
v -1.599821 -2.000001 -4.393621
v -2.000000 -2.000001 -4.393621
v -2.633318 -2.674356 -4.393621
v -1.589830 -1.799392 -4.393621
v -2.000000 -1.828816 -4.393621
v -1.566027 -1.321417 -4.393621
v -2.000000 -1.272004 -4.393621
v -2.593307 -1.871376 -4.393621
v -2.560262 -1.208211 -4.393621
v -1.629609 5.017819 5.007642
v -1.000021 5.017819 4.386379
v -1.629609 5.017819 4.386379
v -2.367419 5.017818 5.013529
v -2.367403 5.017818 4.386379
v -2.999979 5.017818 4.386379
v -1.639941 4.393620 5.017821
v -2.363089 4.393619 5.017821
v -2.363088 2.360047 5.017820
v -1.639986 2.360043 5.017820
v -1.639986 -1.639957 5.017820
v -2.363089 -1.639953 5.017820
v -1.639986 1.636925 5.017820
v -2.363088 1.636920 5.017820
v -2.363026 -5.017822 5.017820
v -2.363026 -5.014846 5.017820
v -1.639986 -2.363075 5.017820
v -2.363089 -2.363080 5.017820
v -2.363044 -4.386381 5.017820
v -1.639986 -4.386380 5.017820
v -2.999700 -5.017823 4.386378
v -2.360011 -5.017822 4.386378
v -1.636971 -5.017822 5.014843
v -1.636957 -5.017822 4.386378
v -1.000300 -5.017821 4.386378
v -1.000283 -4.386382 4.386378
v -2.999715 -4.386381 4.386378
v -2.999715 -4.386381 4.386380
v -1.000283 -4.386380 4.386378
v -1.999998 -4.386380 4.386378
v -2.000000 -4.386380 4.386378
v -1.000041 4.393620 4.386383
v -1.000041 4.393620 4.386379
v -2.999961 4.393621 4.386379
v -2.000000 4.393620 4.386379
v -2.000003 4.393620 4.386379
v -2.999961 4.393619 4.386379
v -1.550026 1.000116 4.386379
v -2.000000 1.000103 4.386379
v -1.000133 1.000132 4.386379
v -2.999867 1.000075 4.386379
v -2.549892 1.000088 4.386379
v -1.649616 2.999884 4.386379
v -2.000000 2.999894 4.386379
v -1.000077 2.999867 4.386379
v -2.999923 2.999921 4.386379
v -2.649540 2.999911 4.386379
v -1.350824 -2.999878 4.386379
v -2.000000 -2.999897 4.386379
v -1.000244 -2.999868 4.386379
v -2.999756 -2.999925 4.386379
v -2.350579 -2.999907 4.386379
v -1.450413 -1.000121 4.386379
v -2.000000 -1.000106 4.386379
v -1.000188 -1.000133 4.386379
v -2.999811 -1.000079 4.386379
v -2.450226 -1.000094 4.386379
v -2.999918 2.841850 4.386379
v -2.999784 -2.000002 4.386379
v -2.999867 1.000282 4.386379
v -2.999891 1.842128 4.386379
v -2.999895 1.999998 4.386379
v -1.000244 -2.999717 4.386379
v -1.000227 -2.385558 4.386379
v -1.000216 -2.000001 4.386379
v -1.000216 -2.000000 4.386379
v -1.000199 -1.385843 4.386379
v -1.000105 1.999999 4.386379
v -1.350832 -2.999717 4.386379
v -1.550034 1.000282 4.386379
v -2.439169 -1.221998 4.386379
v -2.400403 -2.000001 4.386379
v -2.350588 -2.999718 4.386379
v -2.000000 -2.000000 4.386379
v -2.400403 -2.000001 4.386379
v -2.000000 -2.999718 4.386379
v -1.400619 -2.000001 4.386379
v -2.000000 -2.000001 4.386379
v -2.000000 -1.272003 4.386379
v -1.400619 -2.000000 4.386379
v -1.433662 -1.336488 4.386379
v -1.383592 -2.341907 4.386379
v -2.000000 -2.271722 4.386379
v -2.389071 -2.227421 4.386379
v -2.549901 1.000282 4.386379
v -2.639620 2.800825 4.386379
v -2.000000 1.000282 4.386379
v -1.634000 2.686323 4.386379
v -1.599821 2.000000 4.386379
v -2.000000 2.727996 4.386379
v -2.000000 2.000000 4.386379
v -2.599716 1.999999 4.386379
v -1.599821 1.999999 4.386379
v -2.000000 1.999999 4.386379
v -2.599716 1.999998 4.386379
v -1.583930 1.680903 4.386379
v -2.000000 1.728278 4.386379
v -2.589521 1.795402 4.386379
v 2.370391 5.017821 5.007642
v 2.370391 5.017822 4.386379
v 2.999979 5.017822 4.386379
v 1.632582 5.017821 5.013529
v 1.632597 5.017821 4.386379
v 1.000021 5.017821 4.386379
v 2.360013 2.360025 5.017820
v 1.636912 2.360029 5.017820
v 2.360058 4.393622 5.017821
v 1.636912 4.393621 5.017821
v 1.636912 1.636943 5.017820
v 2.360013 1.636948 5.017820
v 2.360013 -1.639974 5.017820
v 1.636912 -1.639971 5.017820
v 1.636974 -5.017820 5.017820
v 1.636974 -5.014843 5.017820
v 2.360013 -2.363052 5.017820
v 1.636912 -2.363056 5.017820
v 1.636956 -4.386378 5.017820
v 2.360013 -4.386378 5.017820
v 1.639989 -5.017819 4.386378
v 1.000300 -5.017820 4.386378
v 2.999700 -5.017819 4.386378
v 2.363029 -5.017819 5.014843
v 2.363044 -5.017819 4.386378
v 2.999717 -4.386380 4.386378
v 1.000285 -4.386378 4.386378
v 1.000285 -4.386378 4.386381
v 2.999717 -4.386377 4.386378
v 2.000002 -4.386378 4.386378
v 2.000000 -4.386378 4.386378
v 2.999959 4.393622 4.386379
v 2.999959 4.393622 4.386382
v 1.000038 4.393624 4.386379
v 2.000000 4.393622 4.386379
v 1.999997 4.393622 4.386379
v 1.000038 4.393621 4.386379
v 2.449968 1.000230 4.386379
v 2.000000 1.000217 4.386379
v 2.999867 1.000246 4.386379
v 1.000133 1.000189 4.386379
v 2.999923 2.999758 4.386379
v 2.350390 2.999776 4.386379
v 1.000077 2.999812 4.386379
v 2.000000 2.999785 4.386379
v 2.649170 -2.999764 4.386379
v 2.000000 -2.999783 4.386379
v 2.999756 -2.999754 4.386379
v 1.649415 -2.999793 4.386379
v 1.000244 -2.999811 4.386379
v 2.999812 -1.000242 4.386379
v 2.549592 -1.000230 4.386379
v 1.000188 -1.000188 4.386379
v 1.549779 -1.000203 4.386379
v 2.000000 -1.000215 4.386379
v 1.000216 -1.999999 4.386379
v 1.000115 1.629263 4.386379
v 1.000105 2.000000 4.386379
v 1.000095 2.370734 4.386379
v 2.999761 -2.841006 4.386379
v 2.999781 -2.099632 4.386379
v 2.999784 -1.999998 4.386379
v 2.999788 -1.841292 4.386379
v 2.999809 -1.099913 4.386379
v 2.999895 2.000002 4.386379
v 1.559876 -1.202843 4.386379
v 1.378318 2.440837 4.386379
v 1.400284 2.000001 4.386379
v 2.369080 2.624474 4.386379
v 2.000000 2.556065 4.386379
v 2.556136 -1.131628 4.386379
v 2.400179 2.000001 4.386379
v 1.633753 -2.685469 4.386379
v 2.000000 -2.727171 4.386379
v 2.639220 -2.799954 4.386379
v 1.609514 -2.199011 4.386379
v 2.000000 -2.171098 4.386379
v 2.000000 -1.171382 4.386379
v 2.605746 -2.127799 4.386379
v 1.599597 -1.999999 4.386379
v 2.000000 -1.999999 4.386379
v 2.599381 -1.999998 4.386379
v 1.422660 1.550946 4.386379
v 2.000000 1.443937 4.386379
v 2.431858 1.363893 4.386379
v 2.000000 2.000000 4.386379
v 2.000000 2.000001 4.386379
v 2.400179 2.000000 4.386379
v 1.583655 -1.680047 4.386379
v 2.000000 -1.727453 4.386379
v 2.589149 -1.794535 4.386379
vn -0.0000 1.0000 -0.0000
vn 1.0000 -0.0000 -0.0000
vn -0.0000 -0.0000 1.0000
vn -0.0000 -1.0000 -0.0000
vn -0.0000 -0.0000 -1.0000
vn -1.0000 -0.0000 -0.0000
vn -0.7100 -0.0000 -0.7042
vn -0.7117 -0.0000 0.7025
vn -0.7118 -0.0000 0.7024
vn -0.7101 -0.0000 -0.7041
vn -0.7121 -0.0206 0.7018
vn -0.7117 -0.0000 0.7024
vn 0.7100 -0.0000 -0.7042
vn 0.7101 -0.0000 -0.7041
vn 0.7118 -0.0000 0.7024
vn 0.7117 -0.0000 0.7025
vn 0.7117 -0.0000 0.7024
vn -0.0000 0.7101 -0.7041
vn -0.0000 0.7100 -0.7042
vn -0.0000 0.7118 0.7024
vn -0.0000 0.7117 0.7024
vn -0.0000 0.7117 0.7025
vn -0.0000 -0.7101 -0.7041
vn -0.0000 -0.7100 -0.7042
vn -0.0000 -0.7117 0.7025
vn -0.0000 -0.7117 0.7024
vn -0.0000 -0.7118 0.7024
vn -0.7042 0.7100 -0.0000
vn -0.7041 0.7101 -0.0000
vn 0.7025 0.7117 -0.0000
vn 0.7024 0.7118 -0.0000
vn -0.7041 -0.7101 -0.0000
vn -0.7042 -0.7100 -0.0000
vn 0.7024 -0.7118 -0.0000
vn 0.7025 -0.7117 -0.0000
vn 0.7100 0.7042 -0.0000
vn 0.7101 0.7041 -0.0000
vn 0.7118 -0.7024 -0.0000
vn 0.7117 -0.7025 -0.0000
vn -0.7101 0.7041 -0.0000
vn -0.7100 0.7042 -0.0000
vn -0.7118 -0.7024 -0.0000
vn -0.7117 -0.7025 -0.0000
vn -0.0000 0.7042 0.7100
vn -0.0000 0.7041 0.7101
vn -0.0000 -0.7024 0.7118
vn -0.0000 -0.7025 0.7117
vn -0.0000 -0.7024 0.7117
vn -0.0000 0.7042 -0.7100
vn -0.0000 0.7041 -0.7101
vn -0.0000 -0.7025 -0.7117
vn -0.0000 -0.7024 -0.7118
vn -0.0000 -0.7024 -0.7117
vn 0.7041 -0.0000 0.7101
vn 0.7042 -0.0000 0.7100
vn -0.7024 -0.0000 0.7118
vn -0.7025 -0.0000 0.7117
vn 0.7042 -0.0000 -0.7100
vn 0.7041 -0.0000 -0.7101
vn -0.7025 -0.0000 -0.7117
vn -0.7024 -0.0000 -0.7118
vt 0.874746 0.684049
vt 0.875000 0.684049
vt 0.875000 0.750000
vt 0.809048 0.750000
vt 0.809048 0.749821
vt 0.824733 0.734270
vt 0.818508 0.734270
vt 0.809048 0.734270
vt 0.809048 0.684049
vt 0.859270 0.684049
vt 0.859270 0.699733
vt 0.859270 0.600088
vt 0.874746 0.584405
vt 0.875000 0.584405
vt 0.875000 0.665670
vt 0.874893 0.665670
vt 0.859270 0.649912
vt 0.859270 0.665670
vt 0.809049 0.665671
vt 0.809049 0.584405
vt 0.859270 0.584405
vt 0.859270 0.550267
vt 0.859270 0.566025
vt 0.809049 0.566027
vt 0.809049 0.515550
vt 0.824726 0.515550
vt 0.809049 0.500002
vt 0.809049 0.500000
vt 0.875000 0.500000
vt 0.875000 0.566025
vt 0.874893 0.566025
vt 0.709404 0.665671
vt 0.709404 0.584405
vt 0.790671 0.584405
vt 0.790671 0.665671
vt 0.709403 0.750000
vt 0.709403 0.749821
vt 0.725088 0.734270
vt 0.709403 0.734270
vt 0.709404 0.684049
vt 0.790671 0.684049
vt 0.790671 0.734270
vt 0.774912 0.734270
vt 0.785224 0.744446
vt 0.790671 0.749821
vt 0.790671 0.750000
vt 0.790670 0.500000
vt 0.790670 0.500002
vt 0.774919 0.515550
vt 0.790670 0.515550
vt 0.790670 0.566027
vt 0.709404 0.566026
vt 0.709405 0.515550
vt 0.725081 0.515549
vt 0.709405 0.500002
vt 0.709405 0.500000
vt 0.640550 0.600081
vt 0.640550 0.584403
vt 0.691026 0.584405
vt 0.691026 0.665671
vt 0.640550 0.665671
vt 0.640550 0.649919
vt 0.625000 0.665597
vt 0.625000 0.584403
vt 0.625073 0.584403
vt 0.640550 0.684048
vt 0.691026 0.684049
vt 0.691026 0.734270
vt 0.675267 0.734270
vt 0.691027 0.749821
vt 0.691027 0.750000
vt 0.625000 0.750000
vt 0.625000 0.684048
vt 0.625073 0.684048
vt 0.640550 0.699726
vt 0.640550 0.550274
vt 0.625000 0.565952
vt 0.625000 0.500000
vt 0.691025 0.500000
vt 0.691025 0.500002
vt 0.675274 0.515550
vt 0.691025 0.515550
vt 0.691026 0.566027
vt 0.640550 0.566026
vt 0.574726 0.984270
vt 0.558975 0.984270
vt 0.558974 0.933867
vt 0.609450 0.933867
vt 0.609450 0.949726
vt 0.625000 0.934048
vt 0.625000 1.000000
vt 0.558975 1.000000
vt 0.558975 0.999818
vt 0.425274 0.984270
vt 0.440951 0.999818
vt 0.440951 1.000000
vt 0.375000 1.000000
vt 0.375000 0.933867
vt 0.390730 0.949733
vt 0.390730 0.933866
vt 0.440951 0.933866
vt 0.440951 0.984270
vt 0.524919 0.984270
vt 0.540595 0.999818
vt 0.540595 1.000000
vt 0.459330 1.000000
vt 0.459330 0.999818
vt 0.475081 0.984270
vt 0.459330 0.984270
vt 0.459329 0.933866
vt 0.540595 0.933867
vt 0.540595 0.984270
vt 0.475088 0.765549
vt 0.459330 0.750000
vt 0.540595 0.750000
vt 0.524912 0.765550
vt 0.540597 0.765550
vt 0.540595 0.816208
vt 0.459329 0.816209
vt 0.459329 0.765550
vt 0.440952 0.765550
vt 0.440951 0.816209
vt 0.390730 0.816209
vt 0.390730 0.800267
vt 0.375000 0.816208
vt 0.375000 0.750000
vt 0.440951 0.750000
vt 0.425267 0.765550
vt 0.574733 0.765550
vt 0.558975 0.750000
vt 0.625000 0.816026
vt 0.609450 0.800274
vt 0.609450 0.816208
vt 0.558973 0.816208
vt 0.558973 0.765550
vt 0.609450 0.850081
vt 0.625000 0.834403
vt 0.625000 0.915671
vt 0.609451 0.899919
vt 0.609450 0.915853
vt 0.558973 0.915853
vt 0.558973 0.834222
vt 0.609450 0.834222
vt 0.440951 0.915854
vt 0.390730 0.915854
vt 0.390730 0.899912
vt 0.375000 0.915852
vt 0.375000 0.834223
vt 0.390730 0.850088
vt 0.390730 0.834221
vt 0.440951 0.834221
vt 0.459329 0.834222
vt 0.540595 0.834222
vt 0.540595 0.915853
vt 0.459329 0.915854
vt 0.574733 0.015550
vt 0.558975 0.000000
vt 0.625000 0.000000
vt 0.625000 0.065951
vt 0.609450 0.050267
vt 0.609450 0.066208
vt 0.558791 0.066209
vt 0.558791 0.015550
vt 0.609451 0.084222
vt 0.609450 0.100088
vt 0.625000 0.084330
vt 0.625000 0.165595
vt 0.609450 0.149912
vt 0.609450 0.165853
vt 0.558792 0.165854
vt 0.558791 0.084222
vt 0.609450 0.199733
vt 0.625000 0.183975
vt 0.625000 0.250000
vt 0.558792 0.250000
vt 0.558792 0.249998
vt 0.574726 0.234270
vt 0.558792 0.234270
vt 0.558792 0.183867
vt 0.609450 0.183867
vt 0.459330 0.000000
vt 0.540595 0.000000
vt 0.524912 0.015550
vt 0.540778 0.015550
vt 0.540778 0.066209
vt 0.459146 0.066209
vt 0.459146 0.015550
vt 0.475088 0.015550
vt 0.540778 0.084223
vt 0.540778 0.165854
vt 0.459147 0.165854
vt 0.459146 0.084223
vt 0.459148 0.249999
vt 0.475081 0.234270
vt 0.459147 0.234270
vt 0.459147 0.183867
vt 0.540778 0.183867
vt 0.540778 0.234270
vt 0.524919 0.234270
vt 0.540777 0.249998
vt 0.540778 0.250000
vt 0.459148 0.250000
vt 0.425274 0.234270
vt 0.441133 0.249998
vt 0.441133 0.250000
vt 0.375000 0.250000
vt 0.375000 0.183866
vt 0.375074 0.183866
vt 0.390730 0.199726
vt 0.390730 0.183866
vt 0.441133 0.183867
vt 0.441133 0.234270
vt 0.390730 0.100081
vt 0.390730 0.084221
vt 0.441133 0.084223
vt 0.441133 0.165854
vt 0.390730 0.165854
vt 0.390730 0.149919
vt 0.375000 0.165779
vt 0.375000 0.084221
vt 0.375074 0.084221
vt 0.390730 0.066209
vt 0.390730 0.050274
vt 0.375000 0.066134
vt 0.375000 0.000000
vt 0.440951 0.000000
vt 0.425267 0.015550
vt 0.441134 0.015550
vt 0.441133 0.066209
vt 0.140730 0.550274
vt 0.125000 0.566134
vt 0.125000 0.500000
vt 0.190951 0.500000
vt 0.175267 0.515549
vt 0.191134 0.515550
vt 0.191133 0.566209
vt 0.140730 0.566209
vt 0.140730 0.600081
vt 0.140730 0.584221
vt 0.191133 0.584223
vt 0.191133 0.665854
vt 0.140730 0.665854
vt 0.140730 0.649919
vt 0.125000 0.665779
vt 0.125000 0.584221
vt 0.125074 0.584221
vt 0.140730 0.683866
vt 0.191133 0.683867
vt 0.191133 0.734270
vt 0.175274 0.734270
vt 0.187053 0.745953
vt 0.191133 0.749998
vt 0.191133 0.750000
vt 0.125000 0.750000
vt 0.125000 0.683866
vt 0.125074 0.683866
vt 0.140730 0.699726
vt 0.209147 0.749998
vt 0.209148 0.749998
vt 0.225081 0.734270
vt 0.209147 0.734270
vt 0.209147 0.683867
vt 0.290778 0.683867
vt 0.290777 0.734270
vt 0.274919 0.734270
vt 0.290777 0.749998
vt 0.290777 0.750000
vt 0.209147 0.750000
vt 0.290778 0.566209
vt 0.209146 0.566209
vt 0.209146 0.515550
vt 0.225088 0.515550
vt 0.209330 0.500000
vt 0.290595 0.500000
vt 0.274912 0.515550
vt 0.290779 0.515550
vt 0.290778 0.665854
vt 0.209147 0.665854
vt 0.209146 0.584223
vt 0.290778 0.584223
vt 0.359450 0.600088
vt 0.375000 0.584330
vt 0.375000 0.665595
vt 0.359450 0.649912
vt 0.359450 0.665853
vt 0.308792 0.665854
vt 0.308791 0.584223
vt 0.359450 0.584223
vt 0.359450 0.550267
vt 0.359450 0.566208
vt 0.308791 0.566209
vt 0.308791 0.515550
vt 0.324733 0.515550
vt 0.308975 0.500000
vt 0.375000 0.500000
vt 0.375000 0.565951
vt 0.359450 0.699733
vt 0.375000 0.683975
vt 0.308792 0.750000
vt 0.308792 0.749999
vt 0.324726 0.734270
vt 0.308792 0.734270
vt 0.308792 0.683867
vt 0.359450 0.683867
vt 0.540596 0.683973
vt 0.540595 0.734450
vt 0.524919 0.734450
vt 0.540595 0.749998
vt 0.459330 0.749998
vt 0.475081 0.734451
vt 0.459330 0.734450
vt 0.459330 0.683973
vt 0.540596 0.584329
vt 0.540596 0.665595
vt 0.459330 0.665595
vt 0.459329 0.584329
vt 0.459329 0.565951
vt 0.459329 0.515730
vt 0.475088 0.515730
vt 0.459329 0.500179
vt 0.459329 0.500000
vt 0.540597 0.500000
vt 0.540597 0.500179
vt 0.524912 0.515730
vt 0.540597 0.515730
vt 0.540596 0.565951
vt 0.425274 0.734450
vt 0.440951 0.749998
vt 0.375107 0.683975
vt 0.390730 0.699733
vt 0.390730 0.683975
vt 0.440951 0.683973
vt 0.440951 0.734450
vt 0.375107 0.584330
vt 0.390730 0.600088
vt 0.390730 0.584330
vt 0.440951 0.584329
vt 0.440951 0.665595
vt 0.390730 0.665595
vt 0.390730 0.649912
vt 0.375254 0.665595
vt 0.440951 0.565951
vt 0.390730 0.565951
vt 0.390730 0.550267
vt 0.375254 0.565951
vt 0.440952 0.500000
vt 0.440952 0.500179
vt 0.425267 0.515730
vt 0.440952 0.515730
vt 0.558975 0.749998
vt 0.574726 0.734451
vt 0.558975 0.734450
vt 0.558974 0.683974
vt 0.609450 0.683974
vt 0.609450 0.699726
vt 0.558974 0.565951
vt 0.558974 0.515730
vt 0.574733 0.515730
vt 0.558974 0.500179
vt 0.558974 0.500000
vt 0.624927 0.565952
vt 0.609450 0.550274
vt 0.609450 0.565952
vt 0.558974 0.584329
vt 0.609450 0.584329
vt 0.609451 0.600081
vt 0.624927 0.665597
vt 0.609450 0.649919
vt 0.609450 0.665597
vt 0.558974 0.665595
vt 0.390730 0.399919
vt 0.375182 0.415595
vt 0.375000 0.415595
vt 0.375000 0.334330
vt 0.375182 0.334330
vt 0.390730 0.350081
vt 0.390730 0.334330
vt 0.441133 0.334330
vt 0.441133 0.415596
vt 0.390730 0.415596
vt 0.558791 0.415597
vt 0.558791 0.334329
vt 0.609450 0.334329
vt 0.609450 0.350088
vt 0.625000 0.334330
vt 0.625000 0.415595
vt 0.609450 0.399912
vt 0.609450 0.415597
vt 0.459146 0.415596
vt 0.459146 0.334330
vt 0.540777 0.334329
vt 0.540777 0.415597
vt 0.475081 0.484450
vt 0.459147 0.484450
vt 0.459146 0.433975
vt 0.540777 0.433974
vt 0.540778 0.484450
vt 0.524919 0.484450
vt 0.574726 0.484450
vt 0.558792 0.484450
vt 0.558791 0.433974
vt 0.609450 0.433974
vt 0.609450 0.449733
vt 0.625000 0.433975
vt 0.425274 0.484450
vt 0.375000 0.433975
vt 0.375182 0.433975
vt 0.390730 0.449726
vt 0.390730 0.433975
vt 0.441133 0.433975
vt 0.441133 0.484450
vt 0.390730 0.300274
vt 0.375182 0.315951
vt 0.375000 0.315951
vt 0.425267 0.265730
vt 0.441134 0.265730
vt 0.441133 0.315951
vt 0.390730 0.315951
vt 0.475088 0.265730
vt 0.524912 0.265730
vt 0.540779 0.265730
vt 0.540777 0.315952
vt 0.459146 0.315951
vt 0.459146 0.265730
vt 0.574733 0.265730
vt 0.625000 0.315951
vt 0.609450 0.300267
vt 0.609450 0.315952
vt 0.558791 0.315952
vt 0.558791 0.265730
vt 0.437500 0.881482
vt 0.437500 1.000000
vt 0.445362 1.000000
vt 0.439730 0.885710
vt 0.445365 0.896396
vt 0.445365 1.000000
vt 0.500000 1.000000
vt 0.486341 0.974099
vt 0.487543 0.998170
vt 0.475089 0.998170
vt 0.462634 0.998170
vt 0.465769 0.935088
vt 0.437500 0.500000
vt 0.437500 0.659574
vt 0.437500 0.659574
vt 0.445362 0.500000
vt 0.562500 0.657784
vt 0.562500 0.603244
vt 0.559572 0.598408
vt 0.520298 0.659598
vt 0.513472 0.522254
vt 0.500000 0.500000
vt 0.445365 0.500000
vt 0.445365 0.659598
vt 0.470475 0.659598
vt 0.462635 0.501831
vt 0.475089 0.501831
vt 0.487543 0.501831
vt 0.479664 0.659598
vt 0.554725 0.659598
vt 0.554725 0.590401
vt 0.534602 0.557159
vt 0.529487 0.659598
vt 0.027031 0.000000
vt 0.153595 0.000000
vt 0.145137 0.000000
vt 0.026915 0.000000
vt 0.263359 0.000000
vt 0.159847 0.000000
vt 0.328177 0.000000
vt 0.324791 0.000000
vt 0.500000 0.000000
vt 0.972969 0.000000
vt 0.632932 0.000000
vt 0.736443 0.000000
vt 0.973085 0.000000
vt 0.673791 0.000000
vt 0.973085 0.000000
vt 0.670389 0.000000
vt 0.973085 0.000000
vt 0.437500 0.840440
vt 0.445365 0.840424
vt 0.470475 0.840422
vt 0.520298 0.840418
vt 0.479664 0.840422
vt 0.562500 1.000000
vt 0.562500 0.842229
vt 0.554725 0.999939
vt 0.554725 0.840416
vt 0.529487 0.840418
vt 0.537366 0.998170
vt 0.524911 0.998170
vt 0.512457 0.998170
vt 0.562500 0.500000
vt 0.512457 0.501830
vt 0.524911 0.501831
vt 0.537365 0.501831
vt 0.554725 0.500061
vt 0.437500 0.659582
vt 0.437500 0.840440
vt 0.445365 0.840424
vt 0.445365 1.000000
vt 0.554725 0.999939
vt 0.554725 0.840416
vt 0.529487 0.840418
vt 0.537364 0.998170
vt 0.524911 0.998170
vt 0.512458 0.998170
vt 0.520298 0.840418
vt 0.479664 0.840421
vt 0.487542 0.998170
vt 0.475089 0.998170
vt 0.462636 0.998170
vt 0.470475 0.840422
vt 0.437500 0.659582
vt 0.562500 0.657784
vt 0.445365 0.500000
vt 0.445365 0.659598
vt 0.470475 0.659598
vt 0.462636 0.501830
vt 0.475089 0.501830
vt 0.487541 0.501831
vt 0.479664 0.659598
vt 0.520298 0.659598
vt 0.512459 0.501831
vt 0.524911 0.501831
vt 0.537364 0.501831
vt 0.529487 0.659598
vt 0.554725 0.659598
vt 0.027031 0.000000
vt 0.324791 0.000000
vt 0.328177 0.000000
vt 0.972969 0.000000
vt 0.437500 0.842271
vt 0.445272 1.000000
vt 0.470605 0.842252
vt 0.445275 0.842254
vt 0.445275 1.000000
vt 0.462728 1.000000
vt 0.487450 1.000000
vt 0.512550 1.000000
vt 0.520427 0.842249
vt 0.479611 0.842252
vt 0.537273 1.000000
vt 0.562500 0.842246
vt 0.562409 0.842246
vt 0.554635 0.999939
vt 0.554635 0.842246
vt 0.529434 0.842248
vt 0.554635 0.500061
vt 0.562409 0.657767
vt 0.562500 0.657767
vt 0.537274 0.500000
vt 0.529434 0.657767
vt 0.554635 0.657767
vt 0.462727 0.500000
vt 0.445275 0.500000
vt 0.445275 0.657767
vt 0.470605 0.657767
vt 0.479611 0.657767
vt 0.520427 0.657767
vt 0.512549 0.500000
vt 0.487451 0.500000
vt 0.437500 0.657751
vt 0.445272 0.500000
vt 0.324719 0.000000
vt 0.027031 0.000000
vt 0.328246 0.000000
vt 0.673862 0.000000
vt 0.670320 0.000000
vt 0.437500 0.842271
vt 0.470605 0.842252
vt 0.445275 0.842254
vt 0.462726 1.000000
vt 0.487452 1.000000
vt 0.512549 1.000000
vt 0.479611 0.842252
vt 0.537274 1.000000
vt 0.462726 0.500000
vt 0.445275 0.657767
vt 0.470605 0.657767
vt 0.479611 0.657767
vt 0.520427 0.657767
vt 0.512548 0.500000
vt 0.487452 0.500000
vt 0.554635 0.500061
vt 0.562409 0.657767
vt 0.562500 0.657767
vt 0.537275 0.500000
vt 0.529434 0.657767
vt 0.554635 0.657767
vt 0.437500 0.657751
vt 0.027031 0.000000
vt 0.670320 0.000000
vt 0.537363 1.000000
vt 0.562500 1.000000
vt 0.562662 0.840402
vt 0.562661 0.840402
vt 0.560512 0.885655
vt 0.554635 0.999939
vt 0.554816 0.840402
vt 0.529644 0.840402
vt 0.470884 0.840402
vt 0.445583 0.840402
vt 0.445274 1.000000
vt 0.462636 1.000000
vt 0.487541 1.000000
vt 0.512458 1.000000
vt 0.520648 0.840402
vt 0.479880 0.840402
vt 0.437500 1.000000
vt 0.445272 1.000000
vt 0.437771 0.842249
vt 0.562499 0.659590
vt 0.562499 0.659598
vt 0.562500 0.659598
vt 0.537364 0.500000
vt 0.529434 0.659598
vt 0.554635 0.659598
vt 0.554635 0.500061
vt 0.479611 0.659598
vt 0.520427 0.659598
vt 0.512458 0.500000
vt 0.487542 0.500000
vt 0.445275 0.659598
vt 0.470605 0.659598
vt 0.462636 0.500000
vt 0.437500 0.657751
vt 0.500000 0.000000
vt 0.500000 0.000000
vt 0.973085 0.000000
vt 0.470882 0.840402
vt 0.445581 0.840402
vt 0.462635 1.000000
vt 0.487543 1.000000
vt 0.512457 1.000000
vt 0.520647 0.840402
vt 0.479878 0.840402
vt 0.537365 1.000000
vt 0.562500 1.000000
vt 0.562661 0.840402
vt 0.562660 0.840402
vt 0.554635 0.999939
vt 0.554816 0.840402
vt 0.529643 0.840402
vt 0.437771 0.842249
vt 0.437500 1.000000
vt 0.445272 1.000000
vt 0.554635 0.500061
vt 0.537366 0.500000
vt 0.529434 0.659598
vt 0.554635 0.659598
vt 0.479611 0.659598
vt 0.520427 0.659598
vt 0.512457 0.500000
vt 0.487543 0.500000
vt 0.445275 0.659598
vt 0.470605 0.659598
vt 0.462634 0.500000
vt 0.437500 0.657751
vt 0.500000 0.000000
vt 0.562500 1.000000
vt 0.562363 0.842233
vt 0.562362 0.842233
vt 0.554725 0.999939
vt 0.554571 0.842233
vt 0.529305 0.842233
vt 0.537366 1.000000
vt 0.462635 1.000000
vt 0.470228 0.842233
vt 0.445090 0.842233
vt 0.445256 0.932942
vt 0.445365 1.000000
vt 0.512457 1.000000
vt 0.520106 0.842233
vt 0.479427 0.842233
vt 0.487544 1.000000
vt 0.437346 0.842233
vt 0.437256 0.842233
vt 0.437500 1.000000
vt 0.445362 1.000000
vt 0.440515 0.598359
vt 0.437500 0.657767
vt 0.437589 0.657767
vt 0.445365 0.500000
vt 0.445365 0.657767
vt 0.470475 0.657767
vt 0.462635 0.500000
vt 0.520298 0.657767
vt 0.512457 0.500000
vt 0.487543 0.500000
vt 0.479664 0.657767
vt 0.554725 0.500061
vt 0.562499 0.657767
vt 0.562500 0.657767
vt 0.537365 0.500000
vt 0.529487 0.657767
vt 0.554725 0.657767
vt 0.512458 1.000000
vt 0.520105 0.842233
vt 0.479427 0.842233
vt 0.487542 1.000000
vt 0.445090 0.842233
vt 0.445365 1.000000
vt 0.462636 1.000000
vt 0.470228 0.842233
vt 0.562500 1.000000
vt 0.562363 0.842233
vt 0.562363 0.842233
vt 0.554725 0.999939
vt 0.554570 0.842233
vt 0.529304 0.842233
vt 0.537365 1.000000
vt 0.437345 0.842233
vt 0.437256 0.842233
vt 0.437500 1.000000
vt 0.437589 0.657767
vt 0.462636 0.500000
vt 0.512459 0.500000
vt 0.487541 0.500000
vt 0.479664 0.657767
vt 0.554725 0.500061
vt 0.562499 0.657767
vt 0.537364 0.500000
vt 0.500000 0.000000
vt 0.437500 0.840402
vt 0.462634 1.000000
vt 0.470566 0.840402
vt 0.445365 0.840402
vt 0.437537 0.840402
vt 0.529396 0.840402
vt 0.537366 1.000000
vt 0.562500 0.841486
vt 0.554725 0.999999
vt 0.554725 0.840402
vt 0.520389 0.840402
vt 0.479573 0.840402
vt 0.487543 1.000000
vt 0.512457 1.000000
vt 0.437416 0.658845
vt 0.470435 0.659598
vt 0.462635 0.500000
vt 0.445365 0.500000
vt 0.445270 0.659598
vt 0.554725 0.500000
vt 0.537365 0.500000
vt 0.529174 0.659598
vt 0.554553 0.659598
vt 0.562345 0.657023
vt 0.554725 0.500000
vt 0.520182 0.659598
vt 0.512457 0.500000
vt 0.487543 0.500000
vt 0.479429 0.659598
vt 0.437500 0.840402
vt 0.470567 0.840402
vt 0.445365 0.840402
vt 0.437537 0.840402
vt 0.529396 0.840402
vt 0.537364 1.000000
vt 0.562500 0.841486
vt 0.554725 0.999999
vt 0.520389 0.840402
vt 0.479573 0.840402
vt 0.487542 1.000000
vt 0.512458 1.000000
vt 0.437417 0.658845
vt 0.470435 0.659598
vt 0.462636 0.500000
vt 0.445270 0.659598
vt 0.537364 0.500000
vt 0.529174 0.659598
vt 0.554553 0.659598
vt 0.562346 0.657023
vt 0.520183 0.659598
vt 0.487541 0.500000
vt 0.479429 0.659598
vt 0.554635 1.000000
vt 0.562500 0.842233
vt 0.562373 0.842233
vt 0.529525 0.842233
vt 0.537365 1.000000
vt 0.554635 0.842233
vt 0.437537 0.842233
vt 0.437500 0.842233
vt 0.462635 1.000000
vt 0.470513 0.842233
vt 0.445275 0.842233
vt 0.520335 0.842233
vt 0.479702 0.842233
vt 0.487543 1.000000
vt 0.512457 1.000000
vt 0.537366 0.500000
vt 0.529784 0.657767
vt 0.554834 0.657767
vt 0.554635 0.500001
vt 0.562627 0.657767
vt 0.562680 0.657767
vt 0.462634 0.500000
vt 0.437611 0.657024
vt 0.445399 0.657767
vt 0.470680 0.657767
vt 0.520581 0.657767
vt 0.487543 0.500000
vt 0.479884 0.657767
vt 0.537364 1.000000
vt 0.554635 1.000000
vt 0.554635 0.842233
vt 0.529524 0.842233
vt 0.562500 0.842233
vt 0.562373 0.842233
vt 0.520336 0.842233
vt 0.479702 0.842233
vt 0.487541 1.000000
vt 0.512459 1.000000
vt 0.437537 0.842233
vt 0.437500 0.842233
vt 0.462636 1.000000
vt 0.470513 0.842233
vt 0.562500 0.500000
vt 0.537364 0.500000
vt 0.529784 0.657767
vt 0.554834 0.657767
vt 0.554635 0.500000
vt 0.562627 0.657767
vt 0.562681 0.657767
vt 0.462635 0.500000
vt 0.445399 0.657767
vt 0.470680 0.657767
vt 0.479884 0.657767
vt 0.520580 0.657767
vt 0.512458 0.500000
vt 0.529487 0.840422
vt 0.537366 0.998170
vt 0.524911 0.998170
vt 0.512457 0.998170
vt 0.520298 0.840424
vt 0.479665 0.840432
vt 0.487543 0.998170
vt 0.475089 0.998170
vt 0.470476 0.840434
vt 0.445365 0.840427
vt 0.562500 0.842229
vt 0.554725 0.999939
vt 0.554725 0.840417
vt 0.562322 0.657808
vt 0.445245 0.659613
vt 0.470315 0.659619
vt 0.462629 0.501831
vt 0.475082 0.501831
vt 0.487536 0.501831
vt 0.479490 0.659621
vt 0.520061 0.659629
vt 0.512451 0.501831
vt 0.524906 0.501831
vt 0.537359 0.501831
vt 0.529237 0.659631
vt 0.554529 0.659624
vt 0.554725 0.500061
vt 0.437393 0.659597
vt 0.328176 0.000000
vt 0.027030 0.000000
vt 0.324791 0.000000
vt 0.670389 0.000000
vt 0.972968 0.000000
vt 0.673790 0.000000
vt 0.437500 0.840441
vt 0.529487 0.840421
vt 0.537364 0.998170
vt 0.524911 0.998170
vt 0.512458 0.998170
vt 0.520298 0.840423
vt 0.479665 0.840432
vt 0.487542 0.998170
vt 0.475089 0.998170
vt 0.462636 0.998170
vt 0.470476 0.840433
vt 0.445365 0.840427
vt 0.562500 0.842230
vt 0.554725 0.999939
vt 0.554725 0.840416
vt 0.562322 0.657808
vt 0.445245 0.659614
vt 0.470316 0.659619
vt 0.462630 0.501832
vt 0.475082 0.501832
vt 0.487535 0.501832
vt 0.479490 0.659621
vt 0.520062 0.659629
vt 0.512453 0.501832
vt 0.524906 0.501831
vt 0.537358 0.501832
vt 0.529237 0.659631
vt 0.554529 0.659624
vt 0.554725 0.500061
vt 0.437392 0.659597
vt 0.027030 0.000000
vt 0.324791 0.000000
vt 0.670389 0.000000
vt 0.972968 0.000000
vt 0.554635 0.999938
vt 0.554635 0.842247
vt 0.529433 0.842253
vt 0.537274 1.000000
vt 0.562500 0.842246
vt 0.562409 0.842246
vt 0.437500 0.842271
vt 0.470604 0.842265
vt 0.445275 0.842257
vt 0.445275 1.000000
vt 0.513569 0.979582
vt 0.520427 0.842254
vt 0.479611 0.842263
vt 0.554635 0.500061
vt 0.562230 0.657791
vt 0.562321 0.657791
vt 0.529177 0.657801
vt 0.554437 0.657793
vt 0.445272 0.500000
vt 0.437389 0.657765
vt 0.470438 0.657789
vt 0.462725 0.500000
vt 0.445275 0.500000
vt 0.445151 0.657783
vt 0.479431 0.657791
vt 0.520183 0.657799
vt 0.515192 0.555344
vt 0.512548 0.500000
vt 0.487453 0.500000
vt 0.324720 0.000000
vt 0.027032 0.000000
vt 0.328247 0.000000
vt 0.673863 0.000000
vt 0.670321 0.000000
vt 0.972970 0.000000
vt 0.534138 0.936932
vt 0.562500 0.842246
vt 0.562409 0.842246
vt 0.554635 0.999938
vt 0.554635 0.842247
vt 0.529433 0.842252
vt 0.520427 0.842254
vt 0.479611 0.842263
vt 0.487450 1.000000
vt 0.512550 1.000000
vt 0.445272 1.000000
vt 0.470604 0.842264
vt 0.445275 0.842257
vt 0.554635 0.500060
vt 0.562229 0.657791
vt 0.562321 0.657791
vt 0.537274 0.500000
vt 0.536026 0.524081
vt 0.529177 0.657801
vt 0.554437 0.657793
vt 0.445272 0.500000
vt 0.437390 0.657765
vt 0.470439 0.657789
vt 0.462727 0.500000
vt 0.445152 0.657784
vt 0.479432 0.657791
vt 0.520184 0.657799
vt 0.512549 0.500000
vt 0.487451 0.500000
vt 0.324720 0.000000
vt 0.027032 0.000000
vt 0.328247 0.000000
vt 0.972970 0.000000
vt 0.470203 0.842256
vt 0.445065 0.842259
vt 0.445365 1.000000
vt 0.462636 1.000000
vt 0.487542 1.000000
vt 0.512458 1.000000
vt 0.520079 0.842252
vt 0.479402 0.842255
vt 0.554725 0.999939
vt 0.554544 0.842248
vt 0.529278 0.842251
vt 0.537365 1.000000
vt 0.562338 0.842247
vt 0.562337 0.842247
vt 0.445362 1.000000
vt 0.437322 0.842256
vt 0.437233 0.842256
vt 0.554725 0.500061
vt 0.562499 0.657789
vt 0.562500 0.657789
vt 0.537364 0.500000
vt 0.529487 0.657790
vt 0.554725 0.657792
vt 0.445365 0.657782
vt 0.470475 0.657784
vt 0.462636 0.500000
vt 0.479664 0.657785
vt 0.520298 0.657789
vt 0.487541 0.500000
vt 0.437500 0.657780
vt 0.437589 0.657780
vt 0.026915 0.000000
vt 0.328178 0.000000
vt 0.202586 0.000000
vt 0.240155 0.000000
vt 0.327160 0.000000
vt 0.290395 0.000000
vt 0.102099 0.000000
vt 0.027030 0.000000
vt 0.125787 0.000000
vt 0.179336 0.000000
vt 0.155950 0.000000
vt 0.670391 0.000000
vt 0.797408 0.000000
vt 0.676065 0.000000
vt 0.709604 0.000000
vt 0.764691 0.000000
vt 0.673791 0.000000
vt 0.972968 0.000000
vt 0.897898 0.000000
vt 0.824323 0.000000
vt 0.844050 0.000000
vt 0.878479 0.000000
vt 0.470203 0.842256
vt 0.445066 0.842259
vt 0.462634 1.000000
vt 0.487544 1.000000
vt 0.512457 1.000000
vt 0.520080 0.842252
vt 0.479402 0.842255
vt 0.554725 0.999939
vt 0.554545 0.842248
vt 0.529279 0.842251
vt 0.537366 1.000000
vt 0.562339 0.842247
vt 0.562337 0.842247
vt 0.437321 0.842256
vt 0.437233 0.842256
vt 0.554725 0.500061
vt 0.562500 0.657789
vt 0.537365 0.500000
vt 0.529487 0.657790
vt 0.554725 0.657792
vt 0.445365 0.657782
vt 0.470475 0.657784
vt 0.479664 0.657785
vt 0.520298 0.657789
vt 0.437500 0.657780
vt 0.437589 0.657780
vt 0.328177 0.000000
vt 0.148699 0.000000
vt 0.209809 0.000000
vt 0.180899 0.000000
vt 0.236524 0.000000
vt 0.269541 0.000000
vt 0.324792 0.000000
vt 0.027030 0.000000
vt 0.155950 0.000000
vt 0.136456 0.000000
vt 0.190011 0.000000
vt 0.670392 0.000000
vt 0.898361 0.000000
vt 0.547064 0.000000
vt 0.973013 0.000000
vt 0.682822 0.000000
vt 0.560865 0.000000
vt 0.594924 0.000000
vt 0.581003 0.000000
vt 0.844479 0.000000
vt 0.821093 0.000000
vt 0.874671 0.000000
vt 0.673790 0.000000
vt 0.660351 0.000000
vt 0.628950 0.000000
vt 0.973007 0.000000
vt 0.973000 0.000000
vt 0.606785 0.000000
vt 0.972994 0.000000
vt 0.444969 0.840429
vt 0.445275 1.000000
vt 0.462635 1.000000
vt 0.470328 0.840426
vt 0.520207 0.840421
vt 0.479345 0.840425
vt 0.554634 0.999938
vt 0.554455 0.840418
vt 0.529224 0.840420
vt 0.562339 0.840416
vt 0.562338 0.840416
vt 0.437230 0.842273
vt 0.437500 0.657764
vt 0.554635 0.500060
vt 0.562499 0.659620
vt 0.562500 0.659620
vt 0.537366 0.500000
vt 0.529434 0.659620
vt 0.554635 0.659623
vt 0.445275 0.659612
vt 0.470605 0.659614
vt 0.479611 0.659615
vt 0.520427 0.659619
vt 0.026915 0.000000
vt 0.324718 0.000000
vt 0.027031 0.000000
vt 0.328248 0.000000
vt 0.027013 0.000000
vt 0.425308 0.000000
vt 0.324577 0.000000
vt 0.236878 0.000000
vt 0.287516 0.000000
vt 0.198998 0.000000
vt 0.026994 0.000000
vt 0.349023 0.000000
vt 0.371440 0.000000
vt 0.027000 0.000000
vt 0.027007 0.000000
vt 0.403200 0.000000
vt 0.673863 0.000000
vt 0.675421 0.000000
vt 0.708594 0.000000
vt 0.795495 0.000000
vt 0.763122 0.000000
vt 0.670321 0.000000
vt 0.972970 0.000000
vt 0.898298 0.000000
vt 0.824727 0.000000
vt 0.844440 0.000000
vt 0.878892 0.000000
vt 0.444969 0.840429
vt 0.462636 1.000000
vt 0.470328 0.840426
vt 0.512459 1.000000
vt 0.520207 0.840421
vt 0.479345 0.840425
vt 0.554635 0.999939
vt 0.554455 0.840418
vt 0.529224 0.840420
vt 0.562339 0.840416
vt 0.562338 0.840416
vt 0.437230 0.842273
vt 0.445272 0.500000
vt 0.437500 0.657764
vt 0.554635 0.500060
vt 0.562500 0.659620
vt 0.529434 0.659620
vt 0.554635 0.659623
vt 0.445275 0.659612
vt 0.470605 0.659614
vt 0.479611 0.659615
vt 0.520427 0.659619
vt 0.487542 0.500000
vt 0.324719 0.000000
vt 0.027031 0.000000
vt 0.328247 0.000000
vt 0.452853 0.000000
vt 0.102035 0.000000
vt 0.317574 0.000000
vt 0.026987 0.000000
vt 0.121465 0.000000
vt 0.155912 0.000000
vt 0.175648 0.000000
vt 0.439526 0.000000
vt 0.419038 0.000000
vt 0.405831 0.000000
vt 0.026991 0.000000
vt 0.338230 0.000000
vt 0.371440 0.000000
vt 0.027000 0.000000
vt 0.027004 0.000000
vt 0.392401 0.000000
vt 0.673862 0.000000
vt 0.925920 0.000000
vt 0.575100 0.000000
vt 0.790587 0.000000
vt 0.597224 0.000000
vt 0.628965 0.000000
vt 0.651395 0.000000
vt 0.892091 0.000000
vt 0.877199 0.000000
vt 0.910908 0.000000
vt 0.670321 0.000000
vt 0.972970 0.000000
vt 0.813936 0.000000
vt 0.868095 0.000000
vt 0.844441 0.000000
vt 0.554635 0.842233
vt 0.529525 0.842233
vt 0.562500 0.842233
vt 0.562373 0.842233
vt 0.479702 0.842233
vt 0.520335 0.842233
vt 0.445275 0.842233
vt 0.470513 0.842232
vt 0.437500 0.842233
vt 0.437537 0.842233
vt 0.562500 0.657789
vt 0.554635 0.500000
vt 0.562447 0.657789
vt 0.554635 0.657792
vt 0.554635 0.500000
vt 0.529525 0.657799
vt 0.520335 0.657797
vt 0.487543 0.500000
vt 0.479702 0.657789
vt 0.437500 0.657037
vt 0.445275 0.657781
vt 0.470513 0.657787
vt 0.326160 0.000000
vt 0.286965 0.000000
vt 0.239819 0.000000
vt 0.334106 0.000000
vt 0.192690 0.000000
vt 0.329658 0.000000
vt 0.807191 0.000000
vt 0.675256 0.000000
vt 0.760049 0.000000
vt 0.712905 0.000000
vt 0.671777 0.000000
vt 0.665774 0.000000
vt 0.554635 0.842233
vt 0.529524 0.842233
vt 0.562500 0.842233
vt 0.562373 0.842233
vt 0.479702 0.842233
vt 0.520335 0.842233
vt 0.445275 0.842233
vt 0.470513 0.842233
vt 0.437500 0.842233
vt 0.437537 0.842233
vt 0.562500 0.657789
vt 0.437500 0.657037
vt 0.445275 0.657782
vt 0.470513 0.657787
vt 0.554635 0.657792
vt 0.529524 0.657799
vt 0.520335 0.657797
vt 0.479702 0.657789
vt 0.326160 0.000000
vt 0.239817 0.000000
vt 0.192693 0.000000
vt 0.329658 0.000000
vt 0.807188 0.000000
vt 0.760052 0.000000
vt 0.712902 0.000000
vt 0.665776 0.000000
vt 0.470566 0.840402
vt 0.445365 0.840402
vt 0.437537 0.840402
vt 0.520389 0.840402
vt 0.479573 0.840402
vt 0.487543 1.000000
vt 0.554725 0.840402
vt 0.529396 0.840402
vt 0.554725 1.000000
vt 0.554725 1.000000
vt 0.562500 0.841487
vt 0.437500 0.658858
vt 0.529396 0.659629
vt 0.554725 0.659623
vt 0.554725 0.500000
vt 0.562500 0.657047
vt 0.445365 0.659612
vt 0.470567 0.659617
vt 0.462635 0.500000
vt 0.479573 0.659619
vt 0.520389 0.659627
vt 0.329633 0.000000
vt 0.334106 0.000000
vt 0.192689 0.000000
vt 0.326184 0.000000
vt 0.239820 0.000000
vt 0.286965 0.000000
vt 0.671802 0.000000
vt 0.807190 0.000000
vt 0.712904 0.000000
vt 0.760050 0.000000
vt 0.665774 0.000000
vt 0.675230 0.000000
vt 0.470567 0.840402
vt 0.445365 0.840402
vt 0.437537 0.840402
vt 0.437500 0.840402
vt 0.520389 0.840402
vt 0.479573 0.840402
vt 0.554725 0.840402
vt 0.554725 1.000000
vt 0.562500 0.841487
vt 0.562500 0.657047
vt 0.529396 0.659629
vt 0.437500 0.658858
vt 0.445365 0.659612
vt 0.470567 0.659617
vt 0.479573 0.659619
vt 0.520389 0.659627
vt 0.334103 0.000000
vt 0.329633 0.000000
vt 0.326184 0.000000
vt 0.286967 0.000000
vt 0.807187 0.000000
vt 0.712901 0.000000
vt 0.760053 0.000000
vt 0.665777 0.000000
vt 0.675230 0.000000
s 0
usemtl Material
f 923/1/1 352/2/1 7/3/1 100/4/1 101/5/1 9/6/1 14/7/1 104/8/1 354/9/1 924/10/1 925/11/1
f 826/12/1 825/13/1 289/14/1 353/15/1 926/16/1 928/17/1 927/18/1 355/19/1 291/20/1 827/21/1
f 830/22/1 829/23/1 292/24/1 102/25/1 25/26/1 99/27/1 98/28/1 5/29/1 290/30/1 828/31/1
f 359/32/1 293/33/1 295/34/1 357/35/1
f 138/36/1 139/37/1 21/38/1 140/39/1 358/40/1 356/41/1 105/42/1 10/43/1 13/44/1 107/45/1 106/46/1
f 96/47/1 97/48/1 26/49/1 103/50/1 296/51/1 294/52/1 131/53/1 31/54/1 141/55/1 142/56/1
f 736/57/1 738/58/1 298/59/1 362/60/1 637/61/1 638/62/1 636/63/1 297/64/1 737/65/1
f 640/66/1 361/67/1 136/68/1 22/69/1 133/70/1 132/71/1 3/72/1 360/73/1 639/74/1 641/75/1
f 740/76/1 741/77/1 1/78/1 134/79/1 135/80/1 32/81/1 137/82/1 299/83/1 739/84/1
f 578/85/2 577/86/2 457/87/2 108/88/2 109/89/2 100/90/2 7/91/2 459/92/2 576/93/2
f 608/94/2 606/95/2 484/96/2 8/97/2 38/98/2 37/99/2 39/100/2 486/101/2 607/102/2
f 580/103/2 579/104/2 458/105/2 485/106/2 609/107/2 611/108/2 610/109/2 487/110/2 456/111/2 581/112/2
f 545/113/2 546/114/2 514/115/2 512/116/2 513/117/2 460/118/2 489/119/2 544/120/2
f 548/121/2 488/122/2 70/123/2 69/124/2 68/125/2 4/126/2 549/127/2 547/128/2
f 516/129/2 517/130/2 3/72/2 132/131/2 143/132/2 144/133/2 461/134/2 515/135/2
f 146/136/2 138/137/2 106/138/2 111/139/2 110/140/2 463/141/2 465/142/2 145/143/2
f 490/144/2 42/145/2 41/146/2 40/147/2 71/148/2 73/149/2 72/150/2 492/151/2
f 493/152/2 464/153/2 462/154/2 491/155/2
f 467/156/3 459/157/3 7/158/3 352/159/3 363/160/3 931/161/3 929/162/3 583/163/3
f 932/164/3 364/165/3 353/166/3 289/167/3 300/168/3 831/169/3 834/170/3 930/171/3
f 301/172/3 290/173/3 5/174/3 588/175/3 589/176/3 432/177/3 587/178/3 833/179/3 832/180/3
f 485/181/3 458/182/3 466/183/3 582/184/3 934/185/3 935/186/3 613/187/3 495/188/3
f 933/189/3 837/190/3 835/191/3 936/192/3
f 619/193/3 408/194/3 617/195/3 836/196/3 838/197/3 586/198/3 433/199/3 585/200/3 584/201/3 618/202/3
f 409/203/3 615/204/3 614/205/3 6/206/3 839/207/3 840/208/3 230/209/3 843/210/3 842/211/3 616/212/3
f 163/213/3 941/214/3 940/215/3 841/216/3 844/217/3 229/218/3 228/219/3 937/220/3 938/221/3
f 942/222/3 162/223/3 161/224/3 8/225/3 484/226/3 494/227/3 612/228/3 939/229/3
f 845/230/4 839/231/4 6/232/4 28/233/4 27/234/4 46/235/4 232/236/4 846/237/4
f 849/238/4 848/239/4 231/240/4 165/241/4 943/242/4 944/243/4 937/244/4 228/245/4 847/246/4
f 947/247/4 164/248/4 45/249/4 11/250/4 15/251/4 44/252/4 38/253/4 8/254/4 161/255/4 946/256/4 945/257/4
f 47/258/4 16/259/4 12/260/4 43/261/4 166/262/4 168/263/4 75/264/4 23/265/4 74/266/4 71/267/4 40/268/4
f 236/269/4 234/270/4 48/271/4 30/272/4 29/273/4 36/274/4 33/275/4 78/276/4
f 169/277/4 167/278/4 233/279/4 235/280/4
f 742/281/4 744/282/4 644/283/4 643/284/4 642/285/4 171/286/4 237/287/4 743/288/4
f 746/289/4 745/290/4 238/291/4 79/292/4 34/293/4 35/294/4 2/295/4 747/296/4
f 646/297/4 647/298/4 4/126/4 68/299/4 76/300/4 24/301/4 77/302/4 170/303/4 645/304/4
f 651/305/5 520/306/5 468/307/5 518/308/5 514/115/5 546/114/5 550/309/5 496/310/5 553/311/5 648/312/5
f 748/313/5 650/314/5 649/315/5 750/316/5
f 751/317/5 557/318/5 410/319/5 559/320/5 558/321/5 522/322/5 523/323/5 435/324/5 524/325/5 749/326/5
f 497/327/5 552/328/5 549/127/5 4/126/5 647/298/5 652/329/5 172/330/5 655/331/5 654/332/5 551/333/5
f 744/282/5 752/334/5 239/335/5 756/336/5 754/337/5 653/338/5 657/339/5 173/340/5 656/341/5 644/283/5
f 753/342/5 757/343/5 240/344/5 755/345/5 747/296/5 2/295/5 554/346/5 555/347/5 411/348/5 556/349/5
f 519/350/5 469/351/5 521/352/5 660/353/5 659/354/5 365/355/5 360/73/5 3/72/5 517/130/5
f 759/356/5 525/357/5 434/358/5 527/359/5 526/360/5 1/78/5 741/77/5 760/361/5 303/362/5 761/363/5
f 758/364/5 762/365/5 302/366/5 297/64/5 636/63/5 662/367/5 366/368/5 658/369/5 661/370/5
f 80/371/6 81/372/6 36/373/6 29/374/6 49/375/6 51/376/6 50/377/6 412/378/6 414/379/6 82/380/6
f 439/381/6 437/382/6 112/383/6 113/384/6 96/385/6 142/386/6 148/387/6 147/388/6
f 415/389/6 413/390/6 436/391/6 438/392/6
f 561/393/6 560/394/6 417/395/6 440/396/6 529/397/6 528/398/6 522/322/6 558/321/6
f 531/399/6 530/400/6 441/401/6 149/402/6 150/403/6 134/404/6 1/78/6 526/360/6
f 562/405/6 554/346/6 2/295/6 35/406/6 84/407/6 83/408/6 85/409/6 416/410/6 563/411/6
f 52/412/6 53/413/6 28/414/6 6/206/6 614/205/6 620/415/6 621/416/6 418/417/6 54/418/6
f 623/419/6 618/202/6 584/201/6 591/420/6 590/421/6 442/422/6 419/423/6 622/424/6
f 592/425/6 588/175/6 5/174/6 98/426/6 114/427/6 115/428/6 443/429/6 593/430/6
f 15/431/7 11/432/7 57/433/7 55/434/7
f 56/435/7 58/436/7 17/437/7 502/438/7 499/439/7 498/440/7 501/441/7 500/442/7
f 12/443/8 16/444/8 59/445/8 60/446/8
f 107/447/9 13/448/9 117/449/9
f 462/450/8 470/451/8 18/452/8 61/453/8 42/454/8 490/455/8 503/456/8 504/457/8 505/458/8 491/459/8
f 110/460/9 116/461/9 471/462/9 463/463/9
f 118/464/2 120/465/2 14/466/2 9/467/2 17/467/2 19/468/2 119/469/2
f 11/467/2 45/470/2 57/467/2
f 14/466/2 120/465/2 104/471/2
f 19/468/2 17/467/2 58/467/2 62/472/2 121/472/2 119/469/2
f 122/473/2 123/474/2 20/475/2 18/476/2 10/476/2 105/477/2
f 12/476/2 60/478/2 43/479/2
f 62/472/2 61/480/2 18/476/2 20/475/2 123/474/2 121/472/2
f 15/431/7 55/434/7 44/481/7
f 39/482/10 56/435/10 500/442/10 486/483/10
f 456/484/10 487/485/10 502/438/10 17/437/10 9/486/10 101/487/10 124/488/10 108/489/10 457/490/10 473/491/10 472/492/10 474/493/10
f 13/448/9 10/494/9 18/452/9 470/451/9 475/495/9 476/496/9 477/497/9 471/462/9 116/461/9 125/498/9 117/449/9
f 59/445/11 16/444/11 47/499/11
f 74/500/7 23/432/7 86/433/7
f 72/501/10 87/502/10 21/486/10 139/487/10 151/503/10 145/504/10 465/505/10 479/506/10 478/507/10 480/508/10 464/509/10 493/510/10 507/511/10 506/512/10 508/513/10 492/514/10
f 24/443/8 76/515/8 88/446/8
f 152/498/12 133/516/12 22/494/12 89/517/12 70/518/12 488/519/12 509/520/12 511/521/12 510/522/12 489/523/12 460/524/12 483/525/12 481/526/12 482/527/12 461/528/12 144/529/12
f 21/467/2 87/467/2 90/472/2 153/472/2 154/530/2 140/531/2
f 86/467/2 23/467/2 75/532/2
f 155/533/2 153/472/2 90/472/2 89/476/2 22/476/2 136/477/2
f 24/476/2 88/480/2 77/479/2
f 99/534/13 25/432/13 127/535/13
f 443/536/13 115/537/13 126/538/13 445/539/13
f 444/540/14 421/541/14 419/542/14 442/543/14
f 420/544/14 27/486/14 28/545/14 53/546/14 63/547/14 54/548/14 418/549/14
f 64/550/15 49/551/15 29/552/15 30/494/15 422/553/15 412/554/15 50/555/15
f 447/556/16 128/557/16 112/558/16 437/559/16
f 436/560/17 413/561/17 423/562/17 446/563/17
f 26/443/16 97/564/16 129/565/16
f 127/467/6 25/467/6 102/566/6
f 445/467/6 126/467/6 130/472/6 449/472/6
f 425/472/6 421/467/6 444/467/6 448/472/6
f 66/567/6 46/568/6 27/467/6 420/467/6 424/472/6 65/472/6
f 103/569/6 26/476/6 129/480/6
f 449/472/6 130/472/6 128/478/6 447/478/6
f 423/476/6 425/472/6 448/472/6 446/478/6
f 422/478/6 30/476/6 48/570/6 67/533/6 65/472/6 424/472/6
f 141/571/13 31/432/13 157/535/13
f 439/572/13 147/573/13 156/538/13 451/574/13
f 450/575/14 427/576/14 415/542/14 438/577/14
f 426/578/14 33/486/14 36/545/14 81/546/14 91/547/14 82/548/14 414/549/14
f 453/579/16 158/557/16 149/580/16 441/581/16
f 440/582/17 417/583/17 429/584/17 452/585/17
f 92/586/15 84/587/15 35/588/15 34/494/15 428/589/15 416/590/15 85/591/15
f 32/443/16 135/592/16 159/565/16
f 157/467/6 31/467/6 131/566/6
f 451/467/6 156/467/6 160/472/6 455/472/6
f 431/472/6 427/467/6 450/467/6 454/472/6
f 94/593/6 78/568/6 33/467/6 426/467/6 430/472/6 93/472/6
f 137/569/6 32/476/6 159/480/6
f 455/472/6 160/472/6 158/476/6 453/476/6
f 429/476/6 431/472/6 454/472/6 452/476/6
f 428/476/6 34/476/6 79/594/6 95/473/6 93/472/6 430/472/6
f 175/595/18 37/596/18 38/597/18 44/598/18 55/599/18 57/600/18 45/601/18 164/602/18
f 232/603/19 46/604/19 66/605/19 241/606/19
f 242/607/18 174/608/18 165/609/18 231/610/18
f 52/611/19 63/612/19 53/613/19
f 59/614/20 47/615/20 40/616/20 41/494/20 180/617/20 166/618/20 43/619/20 60/620/20
f 233/621/21 167/622/21 179/623/21 247/624/21
f 67/557/22 48/625/22 234/626/22 246/627/22
f 51/443/22 49/628/22 64/565/22
f 52/472/4 54/472/4 63/472/4
f 56/472/4 39/472/4 37/472/4 175/472/4 194/472/4 62/472/4 58/472/4
f 241/472/4 66/472/4 65/472/4 265/472/4 266/629/4 263/629/4
f 199/472/4 201/630/4 174/472/4 242/472/4 259/472/4 200/472/4
f 263/629/4 278/472/4 245/472/4 241/472/4
f 268/472/4 277/472/4 280/472/4 282/472/4
f 288/472/4 281/472/4 282/472/4 280/472/4 283/629/4 244/472/4 245/472/4 278/472/4 263/629/4 266/629/4
f 266/629/4 265/472/4 281/472/4 288/472/4
f 243/472/4 244/472/4 283/629/4 279/630/4
f 279/630/4 283/629/4 280/472/4 277/472/4 268/472/4 259/472/4 242/472/4 243/472/4
f 216/472/4 213/472/4 194/472/4 175/472/4 176/472/4 207/630/4 205/630/4 217/629/4
f 200/472/4 206/472/4 215/472/4 199/472/4
f 214/472/4 213/472/4 216/472/4 217/629/4
f 218/629/4 201/630/4 199/472/4 215/472/4 206/472/4 214/472/4 217/629/4 205/630/4 177/472/4 178/472/4
f 201/630/4 218/629/4 178/472/4 174/472/4
f 176/472/4 177/472/4 205/630/4 207/630/4
f 50/476/4 51/476/4 64/476/4
f 264/476/4 265/478/4 65/476/4 67/480/4 246/476/4
f 247/478/4 179/478/4 202/476/4 200/478/4 259/478/4
f 285/476/4 248/480/4 247/478/4 259/478/4 268/478/4 282/478/4 286/476/4
f 286/476/4 282/478/4 281/478/4 265/478/4 264/476/4 284/631/4 250/480/4 249/478/4
f 285/476/4 286/476/4 249/478/4 248/480/4
f 264/476/4 246/476/4 250/480/4 284/631/4
f 61/480/4 62/476/4 194/476/4 180/476/4 41/476/4 42/476/4
f 204/480/4 181/476/4 180/476/4 194/476/4 213/480/4 214/476/4 208/480/4
f 204/480/4 208/480/4 182/476/4 181/476/4
f 179/478/4 183/480/4 209/480/4 202/476/4
f 209/480/4 183/480/4 182/476/4 208/480/4 214/476/4 206/476/4 200/478/4 202/476/4
f 236/632/19 78/633/19 94/538/19 251/634/19
f 252/635/18 184/636/18 169/637/18 235/638/18
f 185/639/18 73/640/18 71/641/18 74/642/18 86/643/18 75/644/18 168/645/18
f 81/646/19 80/647/19 91/648/19
f 88/649/20 76/615/20 68/616/20 69/494/20 190/650/20 170/651/20 77/652/20
f 237/653/21 171/654/21 189/655/21 256/656/21
f 95/557/22 79/657/22 238/658/22 255/659/22
f 92/565/22 83/443/22 84/660/22
f 80/472/4 82/472/4 91/472/4
f 94/472/4 93/472/4 267/472/4 251/472/4
f 261/661/4 260/472/4 203/472/4 184/472/4 252/472/4
f 253/472/4 270/472/4 261/661/4 252/472/4
f 287/472/4 275/472/4 254/472/4 251/472/4 267/472/4 273/472/4
f 270/472/4 253/472/4 254/472/4 275/472/4 274/472/4 269/472/4 260/472/4 261/661/4
f 274/472/4 275/472/4 287/472/4 273/472/4
f 87/472/4 72/472/4 73/472/4 185/472/4 196/472/4 195/472/4 197/472/4 90/472/4
f 186/472/4 210/629/4 196/472/4 185/472/4
f 188/472/4 212/629/4 211/629/4 187/472/4
f 212/629/4 188/472/4 184/472/4 203/472/4 224/472/4 221/472/4 220/472/4 211/629/4
f 220/472/4 223/472/4 222/472/4 219/472/4 195/472/4 196/472/4 210/629/4 186/472/4 187/472/4 211/629/4
f 195/472/4 219/472/4 222/472/4 197/472/4
f 220/472/4 221/472/4 224/472/4 223/472/4
f 85/476/4 83/476/4 92/476/4
f 267/478/4 93/476/4 95/480/4 255/480/4
f 256/478/4 189/478/4 203/476/4 260/478/4 262/480/4
f 262/480/4 260/478/4 269/480/4 272/480/4
f 273/476/4 267/478/4 255/480/4 258/480/4 271/476/4 276/480/4 274/476/4
f 276/480/4 257/480/4 256/478/4 262/480/4 272/480/4 269/480/4 274/476/4
f 257/480/4 276/480/4 271/476/4 258/480/4
f 69/476/4 70/476/4 89/476/4 90/480/4 197/476/4 198/478/4 190/480/4
f 227/476/4 226/631/4 223/480/4 224/480/4 203/476/4 189/478/4 193/480/4
f 193/480/4 192/476/4 226/631/4 227/476/4
f 198/478/4 225/480/4 191/476/4 190/480/4
f 226/631/4 192/476/4 191/476/4 225/480/4 198/478/4 197/476/4 222/480/4 223/480/4
f 114/662/23 98/663/23 99/664/23 127/665/23 102/666/23 292/667/23 308/668/23
f 367/669/24 354/670/24 104/671/24 120/672/24 118/673/24
f 304/674/23 291/675/23 355/676/23 371/677/23
f 101/678/24 100/679/24 109/680/24 124/681/24
f 117/682/25 125/446/25 111/443/25 106/683/25 107/684/25
f 122/685/25 105/686/25 356/687/25 372/688/25
f 295/689/26 309/690/26 376/691/26 357/692/26
f 129/693/27 97/694/27 96/695/27 113/494/27 313/696/27 296/697/27 103/698/27
f 124/472/1 109/472/1 108/472/1
f 367/472/1 118/472/1 119/472/1 121/472/1 387/472/1 388/629/1
f 390/472/1 326/472/1 327/472/1 324/630/1 304/472/1 371/472/1
f 370/472/1 369/472/1 403/472/1 405/472/1
f 368/472/1 367/472/1 388/629/1 394/630/1
f 390/472/1 371/472/1 370/472/1 405/472/1
f 394/630/1 388/629/1 387/472/1 404/472/1 403/472/1 369/472/1 368/472/1
f 126/472/1 115/472/1 114/472/1 308/472/1 329/472/1 130/472/1
f 305/472/1 304/472/1 324/630/1 351/472/1
f 336/629/1 337/472/1 329/472/1 308/472/1 307/472/1 349/629/1 350/472/1 335/630/1
f 327/472/1 326/472/1 334/472/1 333/472/1
f 337/472/1 336/629/1 335/630/1 345/472/1
f 350/472/1 349/629/1 307/472/1 306/472/1
f 351/472/1 324/630/1 327/472/1 333/472/1 334/472/1 345/472/1 335/630/1 350/472/1 306/472/1 305/472/1
f 387/478/1 121/478/1 123/480/1 122/478/1 372/478/1 385/478/1 386/478/1
f 325/478/1 326/478/1 390/478/1 376/476/1 309/478/1
f 405/478/1 403/478/1 374/476/1 375/478/1
f 404/478/1 387/478/1 386/478/1 407/476/1
f 372/478/1 373/478/1 406/478/1 385/478/1
f 375/478/1 376/476/1 390/478/1 405/478/1
f 407/476/1 386/478/1 385/478/1 406/478/1 373/478/1 374/476/1 403/478/1 404/478/1
f 128/478/1 130/476/1 329/476/1 313/480/1 113/476/1 112/480/1
f 325/478/1 309/478/1 310/478/1 348/478/1
f 346/478/1 312/478/1 313/480/1 329/476/1 337/476/1 345/480/1 347/476/1
f 311/476/1 312/478/1 346/478/1 347/476/1
f 348/478/1 310/478/1 311/476/1 347/476/1 345/480/1 334/480/1 326/478/1 325/478/1
f 110/476/1 111/476/1 125/476/1 116/476/1
f 314/699/23 293/700/23 359/701/23 380/702/23
f 140/703/24 154/704/24 377/705/24 358/706/24
f 148/707/23 142/708/23 141/709/23 157/710/23 131/711/23 294/712/23 318/713/23
f 139/714/24 138/715/24 146/716/24 151/681/24
f 143/443/25 132/683/25 133/717/25 152/446/25
f 155/453/25 136/686/25 361/687/25 381/718/25
f 298/689/26 319/719/26 384/720/26 362/721/26
f 159/722/27 135/723/27 134/695/27 150/494/27 323/724/27 299/697/27 137/698/27
f 146/472/1 145/472/1 151/472/1
f 391/472/1 393/472/1 328/472/1 314/472/1 380/472/1
f 154/472/1 153/472/1 389/472/1 377/472/1
f 393/472/1 391/472/1 401/472/1 396/472/1
f 401/472/1 391/472/1 380/472/1 379/472/1 400/725/1 399/472/1 396/472/1
f 379/472/1 378/472/1 402/472/1 400/725/1
f 402/472/1 378/472/1 377/472/1 389/472/1 399/472/1 400/725/1
f 156/472/1 147/472/1 148/472/1 318/472/1 330/472/1 332/472/1 160/472/1
f 338/472/1 315/472/1 314/472/1 328/472/1 342/472/1 343/472/1
f 316/472/1 315/472/1 338/472/1 343/472/1
f 344/472/1 317/472/1 316/472/1 343/472/1 342/472/1 332/472/1 330/472/1
f 344/472/1 330/472/1 318/472/1 317/472/1
f 389/478/1 153/478/1 155/480/1 381/480/1
f 392/480/1 384/480/1 319/476/1 328/476/1 393/478/1
f 395/478/1 392/480/1 393/478/1 396/478/1
f 397/480/1 399/476/1 389/478/1 381/480/1 382/480/1 398/631/1
f 397/480/1 398/631/1 382/480/1 383/480/1
f 397/480/1 383/480/1 384/480/1 392/480/1 395/478/1 396/478/1 399/476/1
f 158/476/1 160/480/1 332/480/1 331/476/1 323/476/1 150/478/1 149/476/1
f 342/480/1 328/476/1 319/476/1 320/478/1 340/476/1 341/480/1
f 340/476/1 320/478/1 321/478/1 341/480/1
f 322/478/1 323/476/1 331/476/1 339/476/1
f 341/480/1 321/478/1 322/478/1 339/476/1 331/476/1 332/480/1 342/480/1
f 144/476/1 143/476/1 152/476/1
f 161/726/28 162/432/28 175/727/28 164/728/28 947/729/28 948/502/28 946/730/28
f 170/731/29 190/732/29 172/486/29 652/733/29 663/734/29 645/735/29
f 168/736/29 166/737/29 180/738/29 185/739/29
f 163/443/30 938/740/30 950/685/30
f 165/741/30 174/742/30 949/743/30 943/744/30
f 664/745/31 189/746/31 171/747/31 642/748/31
f 656/749/31 173/494/31 665/750/31
f 169/751/31 184/752/31 179/753/31 167/754/31
f 177/472/4 176/472/4 175/472/4 162/472/4 942/472/4 951/472/4 952/472/4
f 186/472/4 185/472/4 180/472/4 181/472/4 182/472/4 187/472/4
f 172/472/4 190/472/4 191/472/4 192/472/4 667/472/4 666/472/4 655/472/4
f 174/478/4 178/476/4 177/480/4 952/480/4 953/480/4 949/476/4
f 163/476/4 950/476/4 941/480/4
f 188/476/4 187/476/4 182/476/4 183/480/4 179/478/4 184/478/4
f 667/480/4 192/476/4 193/480/4 189/478/4 664/478/4 668/480/4
f 665/476/4 173/476/4 657/480/4
f 228/755/28 229/432/28 242/705/28 231/756/28 848/757/28 850/502/28 847/758/28
f 237/759/29 256/760/29 239/486/29 752/761/29 763/762/29 743/735/29
f 235/763/29 233/764/29 247/765/29 252/766/29
f 230/443/30 840/767/30 852/517/30
f 232/768/30 241/769/30 851/453/30 846/770/30
f 764/745/31 255/771/31 238/772/31 745/773/31
f 755/774/31 240/494/31 765/750/31
f 236/775/31 251/719/31 246/776/31 234/777/31
f 243/472/4 242/472/4 229/472/4 844/472/4 853/472/4 854/472/4 244/472/4
f 253/472/4 252/472/4 247/472/4 248/472/4 249/472/4 254/472/4
f 239/472/4 256/472/4 257/472/4 766/472/4 767/472/4 756/472/4
f 851/478/4 241/476/4 245/478/4 244/476/4 854/480/4 855/480/4
f 230/476/4 852/480/4 843/480/4
f 254/478/4 249/478/4 250/480/4 246/476/4 251/476/4
f 766/480/4 257/480/4 258/480/4 255/480/4 764/480/4 768/480/4
f 765/476/4 240/476/4 757/480/4
f 856/778/32 300/486/32 289/779/32 825/780/32
f 291/781/32 304/782/32 857/778/32 827/783/32
f 737/784/33 297/785/33 302/432/33 769/538/33
f 319/786/33 298/787/33 738/788/33 770/538/33
f 295/789/32 293/790/32 314/791/32 309/792/32
f 301/494/34 308/793/34 292/794/34 829/795/34 858/796/34 828/797/34 290/798/34
f 323/799/35 303/443/35 760/800/35 771/557/35 739/801/35 299/802/35
f 296/803/34 313/655/34 318/804/34 294/805/34
f 302/472/1 762/472/1 769/472/1
f 772/472/1 773/472/1 321/472/1 320/472/1 319/472/1 770/472/1
f 857/472/1 304/472/1 305/472/1 306/472/1 860/472/1 859/472/1
f 831/472/1 300/472/1 856/472/1
f 315/472/1 316/472/1 311/472/1 310/472/1 309/472/1 314/472/1
f 761/478/1 303/476/1 323/476/1 322/478/1 321/478/1 773/478/1 774/478/1
f 306/480/1 307/476/1 308/478/1 301/476/1 832/476/1 861/476/1 860/476/1
f 317/476/1 318/480/1 313/480/1 312/478/1 311/476/1 316/476/1
f 367/806/32 954/807/32 924/808/32 354/809/32
f 955/778/32 363/486/32 352/810/32 923/811/32
f 356/812/32 358/813/32 377/814/32 372/815/32
f 639/816/33 360/817/33 365/432/33 669/538/33
f 381/818/33 361/819/33 640/788/33 670/538/33
f 364/820/34 371/821/34 355/822/34 927/823/34 956/824/34 926/825/34 353/826/34
f 384/827/35 366/443/35 662/800/35 671/557/35 637/828/35 362/829/35
f 359/830/34 357/831/34 376/832/34 380/624/34
f 365/472/1 659/472/1 669/472/1
f 673/472/1 672/472/1 383/472/1 382/472/1 381/472/1 670/472/1
f 954/472/1 367/472/1 368/472/1 369/472/1 958/472/1 957/472/1
f 931/472/1 363/472/1 955/472/1
f 378/472/1 379/472/1 374/472/1 373/472/1 372/472/1 377/472/1
f 674/480/1 658/476/1 366/476/1 384/480/1 383/480/1 672/480/1
f 369/478/1 370/478/1 371/480/1 364/476/1 932/476/1 959/476/1 958/478/1
f 380/476/1 376/476/1 375/478/1 374/476/1 379/476/1
f 615/481/36 409/432/36 624/433/36
f 416/833/37 428/834/37 430/835/37 426/836/37 414/837/37 412/838/37 422/839/37 424/840/37 420/441/37 418/841/37 621/842/37 625/502/37 411/486/37 555/843/37 564/844/37 563/845/37
f 559/846/38 410/494/38 627/517/38 622/847/38 419/848/38 421/849/38 425/850/38 423/851/38 413/852/38 415/853/38 427/854/38 431/855/38 429/856/38 417/857/38 560/858/38 565/859/38
f 408/443/39 619/860/39 626/446/39
f 624/467/6 409/467/6 616/861/6
f 411/467/6 625/467/6 628/472/6 629/472/6 568/472/6 567/472/6 566/862/6 556/863/6
f 617/864/6 408/476/6 626/476/6
f 569/865/6 568/472/6 629/472/6 627/478/6 410/478/6 557/866/6
f 585/867/36 433/432/36 594/433/36
f 440/868/37 452/869/37 454/870/37 450/871/37 438/872/37 436/873/37 446/874/37 448/875/37 444/876/37 442/877/37 590/878/37 595/502/37 435/486/37 523/879/37 532/880/37 529/881/37
f 527/882/38 434/494/38 597/517/38 593/883/38 443/884/38 445/885/38 449/886/38 447/887/38 437/888/38 439/889/38 451/890/38 455/891/38 453/892/38 441/893/38 530/894/38 533/895/38
f 432/443/39 589/896/39 596/446/39
f 594/467/6 433/467/6 586/861/6
f 435/467/6 595/467/6 598/472/6 599/472/6 536/472/6 535/472/6 534/897/6 524/898/6
f 587/899/6 432/476/6 596/476/6
f 537/900/6 536/472/6 599/472/6 597/478/6 434/478/6 525/866/6
f 600/901/40 581/902/40 456/903/40 474/904/40 466/486/40 458/905/40 579/906/40
f 468/432/41 538/535/41 518/907/41
f 483/574/41 460/908/41 513/909/41 539/910/41
f 480/575/40 475/576/40 470/911/40 462/912/40 464/913/40
f 601/914/42 576/915/42 459/916/42 467/494/42 473/589/42 457/917/42 577/918/42
f 540/919/43 469/443/43 519/920/43
f 461/921/43 482/922/43 541/923/43 515/924/43
f 465/925/42 463/926/42 471/927/42 477/928/42 479/929/42
f 538/467/2 468/467/2 520/930/2
f 542/472/2 481/472/2 483/467/2 539/467/2
f 603/931/2 582/932/2 466/467/2 474/467/2 472/472/2 602/472/2
f 478/472/2 476/472/2 475/467/2 480/467/2
f 543/472/2 541/476/2 482/476/2 481/472/2 542/472/2
f 521/933/2 469/476/2 540/480/2
f 472/472/2 473/478/2 467/476/2 583/934/2 604/935/2 605/472/2 602/472/2
f 479/478/2 477/480/2 476/472/2 478/472/2
f 500/936/40 501/544/40 494/486/40 484/937/40 606/938/40 630/939/40 607/940/40 486/941/40
f 490/942/40 492/943/40 508/944/40 503/945/40
f 497/432/41 570/946/41 552/907/41
f 509/539/41 488/947/41 548/948/41 571/538/41
f 631/949/42 609/950/42 485/951/42 495/494/42 499/952/42 502/953/42 487/954/42 610/955/42
f 572/956/43 496/443/43 550/957/43
f 489/958/43 510/959/43 573/557/43 544/960/43
f 493/961/42 491/962/42 505/963/42 507/964/42
f 570/467/2 497/467/2 551/965/2
f 574/472/2 511/472/2 509/467/2 571/467/2
f 633/966/2 612/967/2 494/467/2 501/467/2 498/472/2 632/472/2
f 506/472/2 504/472/2 503/467/2 508/467/2
f 553/933/2 496/476/2 572/480/2
f 575/472/2 573/480/2 510/480/2 511/472/2 574/472/2
f 498/472/2 499/476/2 495/476/2 613/934/2 634/968/2 635/472/2 632/472/2
f 507/476/2 505/480/2 504/472/2 506/472/2
f 749/969/44 524/970/44 534/971/44 777/972/44
f 775/973/45 677/974/45 650/975/45 748/976/45
f 538/977/45 520/978/45 651/979/45 675/980/45 512/486/45 514/981/45 518/982/45
f 528/432/44 532/983/44 523/984/44 522/985/44
f 540/986/46 519/987/46 517/988/46 516/494/46 680/989/46 660/990/46 521/991/46
f 537/685/47 525/992/47 759/993/47 782/994/47
f 758/995/48 661/996/48 682/719/48 781/997/48
f 533/446/47 531/443/47 526/998/47 527/999/47
f 532/467/5 528/1000/5 529/1001/5
f 777/467/5 534/467/5 535/472/5 797/472/5
f 799/1002/5 800/472/5 699/472/5 677/467/5 775/467/5
f 799/1002/5 775/467/5 776/467/5 806/1003/5
f 804/1004/5 810/1005/5 778/467/5 777/467/5 797/472/5 807/472/5
f 810/1005/5 811/472/5 803/472/5 800/472/5 799/1002/5 806/1003/5 776/467/5 778/467/5
f 811/472/5 810/1005/5 804/1004/5 807/472/5
f 513/531/5 512/467/5 675/467/5 701/1006/5 702/472/5 703/472/5 543/472/5 542/472/5 539/1007/5
f 733/1008/5 701/1006/5 675/467/5 676/467/5
f 730/1009/5 678/467/5 677/467/5 699/472/5 710/472/5 729/472/5 732/472/5 731/1010/5
f 679/467/5 678/467/5 730/1009/5 731/1010/5
f 676/467/5 679/467/5 731/1010/5 732/472/5 711/472/5 709/472/5 734/472/5 702/472/5 701/1006/5 733/1008/5
f 703/472/5 702/472/5 734/472/5 709/472/5
f 729/472/5 710/472/5 711/472/5 732/472/5
f 530/1011/5 531/476/5 533/476/5
f 535/472/5 536/472/5 537/480/5 782/480/5 797/472/5
f 802/1012/5 781/480/5 682/476/5 699/472/5 800/472/5 801/472/5
f 805/1013/5 807/472/5 797/472/5 782/480/5 780/480/5 812/1014/5
f 801/472/5 800/472/5 803/472/5 809/472/5
f 779/476/5 781/480/5 802/1012/5 808/1015/5
f 812/1014/5 780/480/5 779/476/5 808/1015/5 802/1012/5 801/472/5 809/472/5 803/472/5 811/472/5
f 811/472/5 807/472/5 805/1013/5 812/1014/5
f 516/476/5 515/1016/5 541/1017/5 543/472/5 703/472/5 704/472/5 705/1018/5 680/476/5
f 707/472/5 710/472/5 699/472/5 682/476/5 683/480/5 717/1019/5 718/1020/5 712/472/5
f 710/472/5 707/472/5 712/472/5 711/472/5
f 704/472/5 703/472/5 709/472/5 713/472/5
f 711/472/5 712/472/5 718/1020/5 684/480/5 681/476/5 716/1021/5 705/1018/5 704/472/5 713/472/5 709/472/5
f 681/476/5 680/476/5 705/1018/5 716/1021/5
f 683/480/5 684/480/5 718/1020/5 717/1019/5
f 753/1022/44 556/1023/44 566/971/44 785/1024/44
f 783/1025/45 687/1026/45 653/1027/45 754/1028/45
f 570/1029/45 551/1030/45 654/1031/45 685/1032/45 547/486/45 549/1033/45 552/1034/45
f 562/432/44 564/983/44 555/1035/44 554/1036/44
f 572/1037/46 550/987/46 546/1038/46 545/494/46 690/1039/46 648/1040/46 553/1041/46
f 569/685/47 557/1042/47 751/1043/47 791/688/47
f 750/1044/48 649/1045/48 692/690/48 790/691/48
f 565/446/47 561/443/47 558/1046/47 559/1047/47
f 564/467/5 562/1000/5 563/1048/5
f 793/1049/5 785/467/5 566/467/5 567/472/5 794/472/5
f 798/472/5 698/472/5 695/1050/5 687/467/5 783/467/5
f 786/467/5 785/467/5 793/1049/5 818/1051/5
f 784/467/5 787/467/5 815/1052/5 813/1053/5
f 816/472/5 798/472/5 783/467/5 784/467/5 813/1053/5 815/1052/5 817/472/5
f 818/1051/5 793/1049/5 794/472/5 814/472/5 817/472/5 815/1052/5 787/467/5 786/467/5
f 548/1054/5 547/467/5 685/467/5 700/472/5 575/472/5 574/472/5 571/1055/5
f 686/467/5 689/467/5 715/1056/5 721/1057/5
f 688/1000/5 687/467/5 695/1050/5 708/1058/5
f 722/472/5 719/472/5 698/472/5
f 723/472/5 720/472/5 715/1056/5 689/467/5 688/1000/5 708/1058/5 695/1050/5 698/472/5 719/472/5 722/472/5
f 735/472/5 724/472/5 700/472/5 685/467/5 686/467/5 721/1057/5 715/1056/5 720/472/5
f 720/472/5 723/472/5 724/472/5 735/472/5
f 560/1059/5 561/476/5 565/476/5
f 567/472/5 568/472/5 569/478/5 791/478/5 796/1060/5 795/1061/5 794/472/5
f 692/478/5 697/1062/5 696/1063/5 698/472/5 798/472/5 790/476/5
f 794/472/5 795/1061/5 823/1064/5 814/472/5
f 819/1065/5 816/472/5 817/472/5 820/1066/5
f 822/1067/5 789/478/5 788/478/5 821/1068/5
f 824/1069/5 796/1060/5 791/478/5 792/478/5
f 821/1068/5 788/478/5 790/476/5 798/472/5 816/472/5 819/1065/5 820/1066/5 822/1067/5
f 824/1069/5 792/478/5 789/478/5 822/1067/5 820/1066/5 817/472/5 814/472/5 823/1064/5 795/1061/5 796/1060/5
f 690/476/5 545/478/5 544/1070/5 573/1017/5 575/472/5 700/472/5
f 698/472/5 696/1063/5 725/1071/5 722/472/5
f 726/1072/5 723/472/5 722/472/5 725/1071/5 696/1063/5 697/1062/5 706/1073/5 693/478/5 694/478/5 714/1074/5
f 726/1072/5 727/1075/5 724/472/5 723/472/5
f 697/1062/5 692/478/5 693/478/5 706/1073/5
f 694/478/5 691/478/5 728/1076/5 714/1074/5
f 728/1076/5 691/478/5 690/476/5 700/472/5 724/472/5 727/1075/5 726/1072/5 714/1074/5
f 582/1077/49 603/1078/49 962/1079/49 934/1080/49
f 963/635/50 864/636/50 837/1081/50 933/1082/50
f 594/1083/50 586/1084/50 838/1085/50 865/639/50 591/486/50 584/1086/50 585/1087/50
f 579/1088/49 580/432/49 600/648/49
f 601/565/51 578/443/51 576/1089/51
f 596/1090/52 589/1091/52 588/1092/52 592/494/52 870/1093/52 833/1094/52 587/1095/52
f 604/557/51 583/1096/51 929/1097/51 964/799/51
f 930/1098/53 834/1099/53 869/655/53 966/656/53
f 600/1100/3 580/467/3 581/1101/3
f 595/1102/3 590/1103/3 591/467/3 865/467/3 884/1104/3 885/1105/3 886/472/3 598/472/3
f 962/467/3 603/467/3 602/472/3 605/472/3 987/472/3
f 980/472/3 892/472/3 864/467/3 963/467/3 979/1106/3
f 963/467/3 961/467/3 1006/1107/3 1008/472/3 1009/472/3 990/472/3 1005/1108/3 979/1106/3
f 961/467/3 960/467/3 1007/1109/3 1006/1107/3
f 987/472/3 994/472/3 1010/472/3 1008/472/3 1006/1107/3 1007/1109/3 960/467/3 962/467/3
f 979/1106/3 1005/1108/3 990/472/3 980/472/3
f 1010/472/3 994/472/3 1009/472/3 1008/472/3
f 894/1110/3 862/467/3 864/467/3 892/472/3 917/472/3 920/1111/3 921/1112/3 911/1113/3
f 865/467/3 866/467/3 909/1114/3 884/1104/3
f 863/1000/3 862/467/3 894/1110/3 911/1113/3
f 922/1115/3 885/1105/3 884/1104/3 909/1114/3 866/467/3 863/1000/3 911/1113/3 921/1112/3 918/472/3 919/472/3
f 917/472/3 918/472/3 921/1112/3 920/1111/3
f 885/1105/3 922/1115/3 919/472/3 886/472/3
f 577/1116/3 578/476/3 601/476/3
f 987/472/3 605/472/3 604/480/3 964/480/3
f 966/478/3 869/478/3 892/472/3 980/472/3 981/1117/3
f 980/472/3 990/472/3 989/1118/3 981/1117/3
f 994/472/3 987/472/3 964/480/3 965/480/3 991/1119/3 992/1120/3 1009/472/3
f 989/1118/3 990/472/3 1009/472/3 992/1120/3 967/476/3 966/478/3 981/1117/3
f 967/476/3 992/1120/3 991/1119/3 965/480/3
f 870/478/3 592/478/3 593/1121/3 597/1122/3 599/472/3 598/472/3 886/472/3 882/1123/3
f 917/472/3 892/472/3 869/478/3 867/478/3 912/1124/3 914/1125/3 915/472/3 913/472/3
f 913/472/3 915/472/3 918/472/3 917/472/3
f 915/472/3 914/1125/3 868/476/3 871/478/3 910/1126/3 882/1123/3 886/472/3 916/472/3 919/472/3 918/472/3
f 916/472/3 886/472/3 919/472/3
f 882/1123/3 910/1126/3 871/478/3 870/478/3
f 867/478/3 868/476/3 914/1125/3 912/1124/3
f 612/1127/49 633/1078/49 970/1128/49 939/1129/49
f 972/814/50 874/1130/50 841/1131/50 940/1132/50
f 624/1133/50 616/1134/50 842/1135/50 875/806/50 620/486/50 614/1136/50 615/1137/50
f 606/1138/49 608/432/49 630/648/49
f 631/1139/51 611/443/51 609/1140/51
f 626/1141/52 619/1091/52 618/1142/52 623/494/52 880/617/52 836/1143/52 617/1144/52
f 634/557/51 613/1145/51 935/1146/51 973/627/51
f 936/1147/53 835/1148/53 879/623/53 975/1149/53
f 607/1150/3 630/1100/3 608/467/3
f 625/1151/3 621/1152/3 620/467/3 875/467/3 883/472/3 628/472/3
f 970/467/3 633/467/3 632/472/3 635/472/3 984/472/3 983/1153/3 982/1154/3
f 978/472/3 889/472/3 888/1155/3 887/1156/3 874/467/3 972/467/3
f 982/1154/3 997/1157/3 968/467/3 970/467/3
f 971/467/3 969/467/3 996/1158/3 995/1159/3
f 983/1153/3 984/472/3 1004/472/3 1001/1160/3
f 1002/472/3 978/472/3 972/467/3 971/467/3 995/1159/3 996/1158/3 999/1161/3 998/1162/3
f 998/1162/3 999/1161/3 1003/472/3 1002/472/3
f 999/1161/3 996/1158/3 969/467/3 968/467/3 997/1157/3 982/1154/3 983/1153/3 1001/1160/3 1004/472/3 1003/472/3
f 887/1156/3 893/1163/3 872/467/3 874/467/3
f 873/467/3 872/467/3 893/1163/3 887/1156/3 888/1155/3 906/1164/3 901/472/3 902/472/3 907/1165/3 900/1166/3
f 876/467/3 873/467/3 900/1166/3 897/1167/3
f 906/1164/3 888/1155/3 889/472/3 901/472/3
f 902/472/3 899/472/3 908/1168/3 907/1165/3
f 908/1168/3 899/472/3 883/472/3 875/467/3 876/467/3 897/1167/3 900/1166/3 907/1165/3
f 611/476/3 631/476/3 610/1169/3
f 984/472/3 635/472/3 634/480/3 973/476/3 986/1170/3 985/1171/3
f 975/478/3 879/478/3 891/1172/3 890/472/3 889/472/3 978/472/3
f 985/1171/3 1013/1173/3 1004/472/3 984/472/3
f 1002/472/3 1003/472/3 1012/1174/3 1011/1175/3
f 1012/1174/3 1000/1176/3 988/1177/3 976/480/3 975/478/3 978/472/3 1002/472/3 1011/1175/3
f 986/1170/3 993/1178/3 974/480/3 977/476/3 1000/1176/3 1012/1174/3 1003/472/3 1004/472/3 1013/1173/3 985/1171/3
f 973/476/3 974/480/3 993/1178/3 986/1170/3
f 977/476/3 976/480/3 988/1177/3 1000/1176/3
f 880/476/3 623/476/3 622/1179/3 627/1180/3 629/472/3 628/472/3 883/472/3
f 905/1181/3 891/1172/3 879/478/3 877/480/3
f 878/476/3 881/476/3 895/1182/3 903/1183/3
f 890/472/3 904/472/3 901/472/3 889/472/3
f 902/472/3 898/472/3 896/472/3 899/472/3
f 895/1182/3 881/476/3 880/476/3 883/472/3 899/472/3 896/472/3 898/472/3 903/1183/3
f 903/1183/3 898/472/3 902/472/3 901/472/3 904/472/3 890/472/3 891/1172/3 905/1181/3 877/480/3 878/476/3
f 665/807/54 657/1184/54 653/1185/54 687/639/54 643/486/54 644/1186/54 656/1187/54
f 650/1188/54 677/791/54 692/792/54 649/1189/54
f 658/1190/55 674/538/55 682/634/55 661/1191/55
f 636/1192/55 638/432/55 671/1078/55 662/1193/55
f 647/1194/56 646/494/56 663/1195/56 652/1196/56
f 655/1197/56 666/1198/56 685/650/56 654/1199/56
f 648/1200/56 690/655/56 675/1201/56 651/1202/56
f 680/799/57 641/443/57 639/1203/57 669/557/57 659/1204/57 660/1205/57
f 671/467/5 638/467/5 637/1206/5
f 677/467/5 678/1207/5 679/472/5 694/472/5 693/1208/5 692/467/5
f 674/1100/5 672/472/5 673/472/5 684/472/5 683/1209/5 682/1000/5
f 643/467/5 687/467/5 688/1210/5 689/472/5 668/472/5 664/467/5 642/1211/5
f 641/476/5 680/476/5 681/1212/5 684/472/5 673/472/5 670/478/5 640/1213/5
f 679/472/5 676/1214/5 675/480/5 690/476/5 691/1215/5 694/472/5
f 663/478/5 646/476/5 645/1216/5
f 685/480/5 666/480/5 667/472/5 668/472/5 689/472/5 686/1217/5
f 765/778/54 757/1218/54 753/1219/54 785/806/54 746/486/54 747/1220/54 755/1221/54
f 749/1222/54 777/814/54 791/1130/54 751/1223/54
f 761/1224/55 774/538/55 782/818/55 759/1225/55
f 741/1226/55 740/432/55 771/538/55 760/1227/55
f 742/494/56 763/1195/56 752/1196/56 744/1228/56
f 781/627/57 736/443/57 737/1229/57 769/557/57 762/1230/57 758/1231/57
f 756/1232/56 767/1195/56 783/617/56 754/1233/56
f 750/1234/56 790/623/56 775/624/56 748/1235/56
f 771/1100/5 740/467/5 739/1236/5
f 792/1237/5 791/467/5 777/467/5 778/472/5 789/472/5
f 782/467/5 774/467/5 773/472/5 772/472/5 780/472/5
f 746/467/5 785/467/5 786/1238/5 787/472/5 768/472/5 764/467/5 745/1239/5
f 736/476/5 781/480/5 779/1240/5 780/472/5 772/472/5 770/480/5 738/1213/5
f 778/472/5 776/1241/5 775/476/5 790/476/5 788/1242/5 789/472/5
f 763/476/5 742/476/5 743/1216/5
f 783/480/5 767/476/5 766/472/5 768/472/5 787/472/5 784/1243/5
f 845/432/58 875/727/58 842/1244/58 843/1245/58 852/704/58 840/1246/58 839/755/58
f 838/1247/59 836/1248/59 880/1249/59 865/739/59
f 832/1250/59 833/1251/59 870/732/59 861/1252/59
f 858/1253/59 830/486/59 828/1254/59
f 850/517/60 849/443/60 847/1255/60
f 826/494/61 869/1039/61 834/1256/61 831/1257/61 856/1258/61 825/1259/61
f 844/1260/60 841/1261/60 874/1262/60 853/517/60
f 835/1263/61 837/1264/61 864/690/61 879/691/61
f 875/467/3 845/467/3 846/1265/3 851/467/3 855/472/3 873/472/3 876/1266/3
f 859/472/3 860/472/3 861/467/3 870/467/3 871/1267/3 868/472/3
f 829/1268/3 830/467/3 858/467/3
f 878/472/3 863/472/3 866/1269/3 865/467/3 880/467/3 881/1270/3
f 848/1271/3 849/476/3 850/478/3
f 873/472/3 855/472/3 854/472/3 853/478/3 874/478/3 872/1272/3
f 879/478/3 864/476/3 862/1273/3 863/472/3 878/472/3 877/1274/3
f 857/480/3 859/472/3 868/472/3 867/1275/3 869/478/3 826/476/3 827/1276/3
f 940/1277/58 941/1278/58 950/704/58 938/1279/58 937/1280/58 944/432/58 972/705/58
f 933/1281/59 936/1282/59 975/765/59 963/766/59
f 932/1283/59 930/759/59 966/760/59 959/1253/59
f 956/1284/59 928/486/59 926/1285/59
f 923/1286/61 925/494/61 964/724/61 929/1287/61 931/1257/61 955/745/61
f 948/517/60 945/443/60 946/1288/60
f 942/1289/60 939/1290/60 970/718/60 951/517/60
f 935/1291/61 934/1292/61 962/719/61 973/997/61
f 949/467/3 953/472/3 969/472/3 971/1293/3 972/467/3 944/467/3 943/1294/3
f 927/1295/3 928/467/3 956/467/3
f 977/472/3 961/472/3 963/467/3 975/467/3 976/1296/3
f 957/472/3 958/472/3 959/467/3 966/467/3 967/472/3
f 947/1271/3 945/476/3 948/478/3
f 953/472/3 952/472/3 951/478/3 970/476/3 968/1297/3 969/472/3
f 962/480/3 960/1298/3 961/472/3 977/472/3 974/1299/3 973/476/3
f 954/480/3 957/472/3 967/472/3 965/1300/3 964/480/3 925/476/3 924/1301/3
o Cube.001
v -0.999881 10.035641 10.020213
v -1.000440 -10.035641 10.020213
v -2.002250 10.035641 11.009328
v -2.002250 -10.035641 11.009328
v -3.000119 10.035641 10.020213
v -2.999560 -10.035641 10.020213
v -2.000000 10.035641 10.020213
v -2.000000 -10.035641 10.020213
v -2.001125 10.035641 10.514771
v -0.999881 -10.035641 11.270214
v -1.000440 10.035641 11.270211
v -2.002249 -10.035641 10.281100
v -2.002251 10.035641 10.281097
v -3.000118 -10.035641 11.270214
v -2.999561 10.035641 11.270212
v -1.999999 -10.035641 11.270214
v -2.000001 10.035641 11.270212
v -2.001124 -10.035641 10.775658
vn -0.0000 1.0000 -0.0000
vn -0.7041 -0.0000 0.7101
vn -0.0000 -1.0000 -0.0000
vn 0.7025 -0.0000 0.7117
vn -0.0000 -0.0000 -1.0000
vn -0.7041 -0.0000 -0.7101
vn 0.7025 -0.0000 -0.7117
vn -0.0000 -0.0000 1.0000
vt 0.875000 0.750000
vt 0.625000 0.750000
vt 0.687500 0.687500
vt 0.750000 0.625000
vt 0.375000 0.750000
vt 0.625000 1.000000
vt 0.375000 1.000000
vt 0.250000 0.625000
vt 0.375000 0.500000
vt 0.625000 0.500000
vt 0.500000 0.000000
vt 0.026915 0.000000
vt 0.973085 0.000000
vt 0.125000 0.750000
s 0
usemtl Material.001
f 1018/1302/62 1016/1303/62 1022/1304/62 1020/1305/62
f 1017/1306/63 1016/1303/63 1018/1307/63 1019/1308/63
f 1017/1306/64 1021/1309/64 1015/1310/64
f 1015/1310/65 1014/1311/65 1016/1303/65 1017/1306/65
f 1021/1312/66 1019/1313/66 1018/1313/66 1020/1312/66
f 1015/1314/66 1021/1312/66 1020/1312/66 1014/1314/66
f 1021/1309/64 1017/1306/64 1019/1315/64
f 1020/1305/62 1022/1304/62 1016/1303/62 1014/1311/62
usemtl Material.003
f 1027/1302/64 1025/1303/64 1031/1304/64 1029/1305/64
f 1026/1306/67 1025/1303/67 1027/1307/67 1028/1308/67
f 1026/1306/62 1030/1309/62 1024/1310/62
f 1024/1310/68 1023/1311/68 1025/1303/68 1026/1306/68
f 1030/1312/69 1028/1313/69 1027/1313/69 1029/1312/69
f 1024/1314/69 1030/1312/69 1029/1312/69 1023/1314/69
f 1030/1309/62 1026/1306/62 1028/1315/62
f 1029/1305/64 1031/1304/64 1025/1303/64 1023/1311/64
