# Blender 5.0.1
# www.blender.org
o Cube
v 5.001916 -5.001916 -5.001920
v -5.001921 5.001916 -5.001915
v 5.001919 5.001918 5.001915
v 1.590665 -3.220020 -0.175908
v 1.249154 -1.000383 -3.220022
v -5.001914 -5.001918 5.001920
v -1.590665 3.220020 -0.175908
v -3.220021 -1.000384 -1.249153
v -1.249153 -1.000384 3.220021
v -0.175907 -3.220020 1.590664
v 0.175907 3.220020 1.590664
v 3.220021 -1.000383 1.249153
v -1.249156 -1.000384 -3.220021
v -3.220021 -1.000384 1.249156
v 1.249157 -1.000383 3.220020
v 3.220020 -1.000383 -1.249156
v 3.220021 -5.001917 1.249153
v 3.220021 -5.001917 -1.249156
v 3.220020 5.001918 1.249153
v 3.220019 5.001918 -1.249156
v 4.009938 -5.001917 -0.616864
v 4.009938 -5.001917 0.616861
v 5.001919 -5.001916 0.616860
v 5.001918 -5.001916 -0.616865
v 4.009936 5.001918 -0.616864
v 4.009936 5.001918 0.616861
v 5.001917 5.001918 0.616860
v 5.001916 5.001918 -0.616865
v -0.616859 -5.001917 5.001918
v 0.616866 -5.001917 5.001917
v -0.616861 5.001917 5.001918
v 0.616864 5.001917 5.001917
v -0.616860 -5.001917 4.009938
v -1.249152 -5.001917 3.220021
v 0.616865 -5.001917 4.009937
v 1.249157 -5.001917 3.220020
v 1.249156 5.001917 3.220020
v 0.616864 5.001917 4.009937
v -0.616861 5.001917 4.009938
v -1.249154 5.001917 3.220021
v -1.249154 5.001917 3.220021
v -3.220020 -5.001918 1.249156
v -3.220021 -5.001918 -1.249153
v -3.220021 5.001917 1.249156
v -3.220022 5.001917 -1.249153
v -4.009938 -5.001918 0.616863
v -4.009936 -5.001918 -0.616862
v -5.001916 -5.001918 0.616863
v -5.001917 -5.001918 -0.616862
v -5.001919 5.001916 -0.616862
v -5.001918 5.001916 0.616863
v -4.009940 5.001917 0.616863
v -4.009938 5.001917 -0.616862
v -0.616862 -5.001917 -5.001917
v 0.616863 -5.001917 -5.001918
v -0.616863 5.001917 -5.001917
v 0.616862 5.001917 -5.001918
v -0.616861 -5.001917 -4.009940
v 0.616864 -5.001917 -4.009936
v -1.249155 -5.001917 -3.220021
v 1.249154 -5.001917 -3.220022
v 0.616862 5.001917 -4.009936
v -0.616863 5.001917 -4.009940
v 1.249153 5.001917 -3.220022
v 1.249153 5.001917 -3.220022
v -1.249156 5.001917 -3.220021
v -5.001918 -3.220021 -3.235348
v -5.001919 -3.220021 -5.001915
v 3.235346 -3.220020 5.001916
v 5.001920 -3.220020 5.001915
v -3.235343 -3.220021 -5.001916
v 5.001919 -3.220020 3.235347
v 4.213192 -5.001917 3.340817
v 4.129541 -5.001917 5.001915
v -4.213191 -5.001918 -3.340817
v -4.129539 -5.001918 -5.001915
v -5.001918 -5.001918 -4.129544
v 5.001920 -5.001916 4.129544
v -5.001919 -4.009938 -4.129544
v 4.129540 -4.009936 5.001915
v -4.129540 -4.009939 -5.001915
v 5.001920 -4.009937 4.129544
v -5.001916 5.001916 4.129540
v -4.129545 5.001917 5.001919
v 4.213181 5.001918 -3.340806
v 5.001915 5.001918 -4.129540
v -4.213183 5.001917 3.340806
v 4.129543 5.001918 -5.001919
v -5.001916 4.009936 4.129540
v -5.001915 3.220020 5.001920
v -5.001916 3.220020 3.235344
v -4.129545 4.009936 5.001919
v -3.235349 3.220020 5.001919
v 5.001915 3.220021 -5.001920
v 4.129544 4.009938 -5.001919
v 3.235347 3.220021 -5.001919
v 3.235347 3.220021 -5.001919
v 5.001915 3.220021 -3.235345
v 5.001915 4.009938 -4.129540
vn -0.0000 -1.0000 -0.0000
vn -1.0000 -0.0000 -0.0000
vn -0.0000 -0.0000 1.0000
vn -0.0000 1.0000 -0.0000
vn -0.0000 -0.0000 -1.0000
vn 1.0000 -0.0000 -0.0000
vn -0.6249 -0.0000 -0.7807
vn -0.6249 -0.0000 0.7807
vn 0.7807 -0.0000 -0.6249
vn -0.7807 -0.0000 -0.6249
vn 0.6249 -0.0000 0.7807
vn 0.6249 -0.0000 -0.7807
vn -0.7807 -0.0000 0.6249
vn 0.7807 -0.0000 0.6249
vn -0.5520 0.6249 0.5520
vn 0.5520 0.6249 -0.5520
vn -0.7071 -0.0000 0.7071
vn 0.7071 -0.0000 -0.7071
vn 0.7071 -0.0000 0.7071
vn -0.7071 -0.0000 -0.7071
vn 0.5520 -0.6249 0.5520
vn -0.5520 -0.6249 -0.5520
vt 0.830470 0.656217
vt 0.850210 0.640416
vt 0.875000 0.640416
vt 0.875000 0.750000
vt 0.781217 0.705470
vt 0.718783 0.705469
vt 0.666511 0.730289
vt 0.875000 0.521801
vt 0.875000 0.609584
vt 0.850210 0.609584
vt 0.830470 0.593783
vt 0.669530 0.593783
vt 0.649790 0.609584
vt 0.625000 0.609584
vt 0.625000 0.500000
vt 0.718783 0.544530
vt 0.781217 0.544530
vt 0.833488 0.519711
vt 0.625000 0.728199
vt 0.625000 0.640416
vt 0.649790 0.640416
vt 0.669530 0.656217
vt 0.765416 0.725210
vt 0.765416 0.750000
vt 0.646801 0.750000
vt 0.734584 0.725210
vt 0.734584 0.750000
vt 0.734584 0.524790
vt 0.734584 0.500000
vt 0.765416 0.524790
vt 0.765416 0.500000
vt 0.853199 0.500000
vt 0.399790 0.978199
vt 0.375000 0.978199
vt 0.375000 0.890416
vt 0.625000 0.890416
vt 0.625000 1.000000
vt 0.419530 1.000000
vt 0.419530 0.955853
vt 0.625000 0.859584
vt 0.375000 0.859584
vt 0.375000 0.750000
vt 0.580470 0.750000
vt 0.580470 0.794147
vt 0.600210 0.771801
vt 0.625000 0.771801
vt 0.580470 0.205853
vt 0.580470 0.250000
vt 0.375000 0.250000
vt 0.375000 0.140416
vt 0.625000 0.140416
vt 0.625000 0.228199
vt 0.600210 0.228199
vt 0.419530 0.000000
vt 0.625000 0.000000
vt 0.625000 0.109584
vt 0.375000 0.109584
vt 0.375000 0.021801
vt 0.399790 0.021801
vt 0.419530 0.044147
vt 0.218783 0.544530
vt 0.125000 0.500000
vt 0.234584 0.500000
vt 0.234584 0.524790
vt 0.265416 0.500000
vt 0.353199 0.500000
vt 0.333488 0.519711
vt 0.281217 0.544530
vt 0.265416 0.524790
vt 0.169530 0.593783
vt 0.149790 0.609584
vt 0.125000 0.609584
vt 0.125000 0.728199
vt 0.125000 0.640416
vt 0.149790 0.640416
vt 0.169530 0.656217
vt 0.330470 0.656217
vt 0.350210 0.640416
vt 0.375000 0.640416
vt 0.281217 0.705470
vt 0.218783 0.705470
vt 0.166512 0.730289
vt 0.375000 0.521801
vt 0.375000 0.609584
vt 0.350210 0.609584
vt 0.330470 0.593783
vt 0.265416 0.750000
vt 0.265416 0.725210
vt 0.234584 0.725210
vt 0.234584 0.750000
vt 0.146801 0.750000
vt 0.600210 0.728199
vt 0.580470 0.705852
vt 0.419530 0.500000
vt 0.399790 0.521801
vt 0.419530 0.544147
vt 0.419530 0.544147
vt 0.375000 0.478199
vt 0.375000 0.390416
vt 0.625000 0.390416
vt 0.419530 0.455853
vt 0.399790 0.478199
vt 0.580470 0.294147
vt 0.600210 0.271801
vt 0.625000 0.271801
vt 0.625000 0.359584
vt 0.375000 0.359584
vt 0.550000 0.000000
vt 0.500000 0.000000
vt 0.425000 0.000000
vt 0.425000 0.126544
vt 0.550000 0.126544
vt 0.500000 0.500000
vt 0.550000 0.500000
vt 0.550000 0.373456
vt 0.425000 0.373456
vt 0.425000 0.500000
vt 0.500000 0.004469
vt 0.640157 0.004469
vt 0.640157 0.995531
vt 0.500000 0.995531
vt 0.289764 0.995531
vt 0.289764 0.004469
vt 0.424976 0.001242
vt 0.424976 0.125240
vt 0.550024 0.125240
vt 0.550024 0.001242
vt 0.550024 0.748758
vt 0.550024 0.624760
vt 0.424976 0.624760
vt 0.424976 0.748758
vt 0.424976 0.000000
vt 0.550024 0.000000
vt 0.550024 0.500000
vt 0.424976 0.500000
vt 0.500000 1.000000
vt 0.425000 1.000000
vt 0.550000 0.250000
vt 0.500000 0.250000
vt 0.425000 0.250000
vt 0.550000 0.126544
vt 0.425000 0.126544
vt 0.550000 0.373456
vt 0.425000 0.373456
vt 0.424976 0.001242
vt 0.550024 0.001242
vt 0.550024 0.748757
vt 0.424976 0.748757
vt 0.568181 0.126544
vt 0.560280 0.000000
vt 0.414720 0.000000
vt 0.406820 0.126544
vt 0.560280 0.500000
vt 0.568180 0.373456
vt 0.406819 0.373456
vt 0.414720 0.500000
vt 0.668973 0.995531
vt 0.348453 0.004469
vt 0.260948 0.004469
vt 0.581468 0.995531
vt 0.406789 0.001242
vt 0.406789 0.125240
vt 0.554269 0.125240
vt 0.568211 0.125240
vt 0.568211 0.001242
vt 0.406788 0.748758
vt 0.568211 0.748758
vt 0.568211 0.624760
vt 0.420731 0.624760
vt 0.406788 0.624760
vt 0.406788 0.001242
vt 0.406788 0.125240
vt 0.554268 0.125240
vt 0.568211 0.125240
vt 0.568211 0.001242
vt 0.568211 0.748758
vt 0.568212 0.624760
vt 0.420732 0.624760
vt 0.406789 0.624760
vt 0.406789 0.748758
vt 0.414720 1.000000
vt 0.568181 0.126544
vt 0.560280 0.000000
vt 0.414720 0.000000
vt 0.406819 0.126544
vt 0.406820 0.373456
vt 0.414720 0.500000
vt 0.560280 0.500000
vt 0.568181 0.373456
vt 0.260948 0.004469
vt 0.581468 0.995531
vt 0.668973 0.995531
vt 0.348454 0.004469
s 0
f 34/1/1 33/2/1 29/3/1 6/4/1 42/5/1 43/6/1 75/7/1 74/8/1 30/9/1 35/10/1 36/11/1
f 61/12/1 59/13/1 55/14/1 1/15/1 18/16/1 17/17/1 73/18/1 76/19/1 54/20/1 58/21/1 60/22/1
f 46/23/1 42/5/1 6/4/1 48/24/1
f 77/25/1 75/7/1 43/6/1 47/26/1 49/27/1
f 21/28/1 18/16/1 1/15/1 24/29/1
f 73/18/1 17/17/1 22/30/1 23/31/1 78/32/1
f 89/33/2 83/34/2 51/35/2 48/36/2 6/37/2 90/38/2 91/39/2
f 49/40/2 50/41/2 2/42/2 68/43/2 67/44/2 79/45/2 77/46/2
f 69/47/3 70/48/3 3/49/3 32/50/3 30/51/3 74/52/3 80/53/3
f 90/54/3 6/55/3 29/56/3 31/57/3 84/58/3 92/59/3 93/60/3
f 19/61/4 3/62/4 27/63/4 26/64/4
f 28/65/4 86/66/4 85/67/4 20/68/4 25/69/4
f 37/70/4 38/71/4 32/72/4 3/62/4 19/61/4 20/68/4 85/67/4 84/73/4 31/74/4 39/75/4 41/76/4 40/76/4
f 66/77/4 63/78/4 56/79/4 2/42/4 45/80/4 44/81/4 87/82/4 88/83/4 57/84/4 62/85/4 65/86/4 64/86/4
f 45/80/4 2/42/4 50/87/4 53/88/4
f 87/82/4 44/81/4 52/89/4 51/90/4 83/91/4
f 68/43/5 2/42/5 56/79/5 54/20/5 76/19/5 81/92/5 71/93/5
f 94/94/5 1/15/5 55/14/5 57/84/5 88/83/5 95/95/5 96/96/5 97/97/5
f 86/98/6 28/99/6 24/100/6 1/15/6 94/94/6 98/101/6 99/102/6
f 72/103/6 82/104/6 78/105/6 23/106/6 27/107/6 3/49/6 70/48/6
f 17/108/7 12/109/7 19/110/7 26/111/7 22/112/7
f 16/113/8 18/114/8 21/115/8 25/116/8 20/117/8
f 12/118/6 17/119/6 18/120/6 16/121/6 20/122/6 19/123/6
f 26/124/5 27/125/5 23/126/5 22/127/5
f 21/128/3 24/129/3 28/130/3 25/131/3
f 39/132/6 31/132/6 29/133/6 33/133/6
f 30/134/2 32/135/2 38/135/2 35/134/2
f 9/136/6 40/137/6 41/137/6
f 33/138/9 34/138/9 9/139/9 41/140/9 39/140/9
f 38/117/10 37/117/10 15/113/10 36/138/10 35/138/10
f 9/121/3 34/120/3 36/120/3 15/121/3 37/123/3 40/123/3
f 47/141/11 43/108/11 8/109/11 45/110/11 53/142/11
f 46/143/12 52/144/12 44/117/12 14/113/12 42/114/12
f 14/121/2 44/122/2 45/123/2 8/118/2 43/119/2 42/120/2
f 53/145/3 50/125/3 49/126/3 47/146/3
f 46/147/5 48/129/5 51/130/5 52/148/5
f 57/132/2 55/133/2 59/133/2 62/132/2
f 54/134/6 56/135/6 63/135/6 58/134/6
f 64/137/1 65/137/1 5/136/1
f 61/138/13 5/139/13 65/140/13 62/140/13 59/138/13
f 13/113/14 60/138/14 58/138/14 63/117/14 66/117/14
f 13/121/5 66/123/5 64/123/5 5/121/5 61/120/5 60/120/5
f 82/149/15 72/150/15 4/109/15 71/151/15 81/152/15
f 10/113/16 69/153/16 80/154/16 79/155/16 67/156/16
f 70/157/1 69/157/1 10/121/1 67/158/1 68/159/1 71/159/1 4/118/1 72/160/1
f 81/161/17 76/162/17 73/163/17 78/164/17 82/165/17
f 79/166/18 80/167/18 74/168/18 75/169/18 77/170/18
f 95/171/19 88/172/19 87/173/19 83/174/19 89/175/19
f 92/176/20 84/177/20 85/178/20 86/179/20 99/180/20
f 7/136/6 97/181/6 96/181/6
f 89/182/21 91/183/21 7/109/21 96/184/21 95/185/21
f 99/186/22 98/187/22 11/113/22 93/188/22 92/189/22
f 97/190/4 7/118/4 91/191/4 90/192/4 93/192/4 11/121/4 98/193/4 94/190/4
