# Blender 5.0.1
# www.blender.org
o Cube.004
v 1.000003 4.981140 -0.616862
v 0.999997 -5.018860 -0.616863
v -0.999997 4.981141 -0.616862
v -1.000003 -5.018859 -0.616863
v 1.000003 4.981140 0.616863
v 0.999997 -5.018860 0.616862
v -0.999997 4.981141 0.616863
v -1.000003 -5.018859 0.616862
vn -0.0000 -0.0000 -1.0000
vn -1.0000 -0.0000 -0.0000
vn -0.0000 -0.0000 1.0000
vn 1.0000 -0.0000 -0.0000
vn -0.0000 1.0000 -0.0000
vn -0.0000 -1.0000 -0.0000
vt 0.375000 0.000000
vt 0.625000 0.000000
vt 0.625000 0.250000
vt 0.375000 0.250000
vt 0.625000 0.500000
vt 0.375000 0.500000
vt 0.625000 0.750000
vt 0.375000 0.750000
vt 0.625000 1.000000
vt 0.375000 1.000000
vt 0.125000 0.500000
vt 0.125000 0.750000
vt 0.875000 0.500000
vt 0.875000 0.750000
s 0
f 1/1/1 2/2/1 4/3/1 3/4/1
f 3/4/2 4/3/2 8/5/2 7/6/2
f 7/6/3 8/5/3 6/7/3 5/8/3
f 5/8/4 6/7/4 2/9/4 1/10/4
f 3/11/5 7/6/5 5/8/5 1/12/5
f 8/5/6 4/13/6 2/14/6 6/7/6
o Cube.005
v -1.779977 4.982865 -1.249153
v -0.219425 -5.020971 -0.000001
v -0.219419 4.982863 0.000002
v -1.779976 4.982864 1.249157
v -1.779983 -5.020969 -1.249156
v -1.779982 -5.020970 1.249154
v -1.779979 -0.019053 1.249155
v -1.779976 4.982864 1.249157
v -1.779977 4.982865 -1.249153
v -1.779980 -0.019052 -1.249154
vn -0.0000 -1.0000 -0.0000
vn 0.6249 -0.0000 0.7807
vn -0.0000 1.0000 -0.0000
vn -0.0000 -0.0000 -1.0000
vn 0.6249 -0.0000 -0.7807
vn -1.0000 -0.0000 -0.0000
vt 0.625000 0.500000
vt 0.875000 0.500000
vt 0.875000 0.750000
vt 0.500000 1.000000
vt 0.375000 1.000000
vt 0.625000 0.250000
vt 0.375000 0.250000
vt 0.375000 0.000000
vt 0.500000 0.000000
vt 0.625000 0.000000
vt 0.125000 0.750000
vt 0.125000 0.500000
vt 0.375000 0.500000
vt 0.500000 0.500000
vt 0.850393 0.995531
vt 0.850393 0.004469
vt 0.500000 0.004469
vt 0.149607 0.004469
vt 0.149607 0.995531
vt 0.500000 0.995531
s 0
f 13/15/7 10/16/7 14/17/7
f 15/18/7 12/19/7 16/19/7
f 10/20/8 11/21/8 12/22/8 15/23/8 14/24/8
f 12/25/9 11/26/9 9/27/9 17/27/9 16/25/9
f 17/27/10 9/27/10 18/28/10
f 9/27/11 11/21/11 10/20/11 13/15/11 18/28/11
f 13/29/12 14/30/12 15/31/12 16/32/12 17/33/12 18/34/12
o Cube.006
v 1.779982 4.982867 1.249154
v 0.219419 -5.020967 -0.000001
v 0.219425 4.982868 -0.000001
v 1.779982 4.982867 -1.249155
v 1.779976 -5.020967 1.249154
v 1.779977 -5.020967 -1.249156
v 1.779979 -0.019050 -1.249156
v 1.779982 4.982867 -1.249155
v 1.779982 4.982867 1.249154
v 1.779979 -0.019050 1.249154
vn -0.0000 -1.0000 -0.0000
vn -0.0000 -0.0000 -1.0000
vn -0.6249 -0.0000 -0.7807
vn -0.0000 1.0000 -0.0000
vn -0.6249 -0.0000 0.7807
vn 1.0000 -0.0000 -0.0000
vt 0.625000 0.500000
vt 0.875000 0.500000
vt 0.875000 0.750000
vt 0.500000 1.000000
vt 0.375000 1.000000
vt 0.625000 0.250000
vt 0.375000 0.250000
vt 0.375000 0.000000
vt 0.500000 0.000000
vt 0.625000 0.000000
vt 0.125000 0.750000
vt 0.125000 0.500000
vt 0.375000 0.500000
vt 0.500000 0.500000
vt 0.850393 0.995531
vt 0.850393 0.004469
vt 0.500000 0.004469
vt 0.149607 0.004469
vt 0.149607 0.995531
vt 0.500000 0.995531
s 0
f 23/35/13 20/36/13 24/37/13
f 25/38/14 22/39/14 26/39/14
f 20/40/15 21/41/15 22/42/15 25/43/15 24/44/15
f 22/45/16 21/46/16 19/47/16 27/47/16 26/45/16
f 27/47/13 19/47/13 28/48/13
f 19/47/17 21/41/17 20/40/17 23/35/17 28/48/17
f 23/49/18 24/50/18 25/51/18 26/52/18 27/53/18 28/54/18
