# Blender 5.0.1
# www.blender.org
mtllib FinalConnecter.mtl
o Cube.004
v 1.000003 4.981140 -0.616862
v 0.999997 -5.018860 -0.616863
v -0.999997 4.981141 -0.616862
v -1.000003 -5.018859 -0.616863
v 1.000003 4.981140 0.616863
v 0.999997 -5.018860 0.616862
v -0.999997 4.981141 0.616863
v -1.000003 -5.018859 0.616862
v -1.779977 4.982865 -1.249153
v -0.219425 -5.020970 -0.000001
v -0.219419 4.982864 0.000002
v -1.779976 4.982864 1.249157
v -1.779983 -5.020969 -1.249156
v -1.779982 -5.020970 1.249154
v -1.779979 -0.019053 1.249155
v -1.779976 4.982864 1.249157
v -1.779977 4.982865 -1.249153
v -1.779980 -0.019052 -1.249154
v 1.779982 4.982867 1.249154
v 0.219419 -5.020967 -0.000001
v 0.219425 4.982868 -0.000001
v 1.779982 4.982867 -1.249155
v 1.779976 -5.020967 1.249154
v 1.779976 -5.020967 -1.249156
v 1.779979 -0.019050 -1.249156
v 1.779982 4.982867 -1.249155
v 1.779982 4.982867 1.249154
v 1.779979 -0.019050 1.249154
vn -0.0000 -0.0000 -1.0000
vn -1.0000 -0.0000 -0.0000
vn -0.0000 -0.0000 1.0000
vn 1.0000 -0.0000 -0.0000
vn -0.0000 1.0000 -0.0000
vn -0.0000 -1.0000 -0.0000
vn 0.6249 -0.0000 0.7807
vn 0.6249 -0.0000 -0.7807
vn -0.6249 -0.0000 -0.7807
vn -0.6249 -0.0000 0.7807
vt 0.375000 0.000000
vt 0.625000 0.000000
vt 0.625000 0.250000
vt 0.375000 0.250000
vt 0.625000 0.500000
vt 0.375000 0.500000
vt 0.625000 0.750000
vt 0.375000 0.750000
vt 0.625000 1.000000
vt 0.375000 1.000000
vt 0.125000 0.500000
vt 0.125000 0.750000
vt 0.875000 0.500000
vt 0.875000 0.750000
vt 0.500000 1.000000
vt 0.500000 0.000000
vt 0.500000 0.500000
vt 0.850393 0.995531
vt 0.850393 0.004469
vt 0.500000 0.004469
vt 0.149607 0.004469
vt 0.149607 0.995531
vt 0.500000 0.995531
s 0
usemtl 
f 1/1/1 2/2/1 4/3/1 3/4/1
f 3/4/2 4/3/2 8/5/2 7/6/2
f 7/6/3 8/5/3 6/7/3 5/8/3
f 5/8/4 6/7/4 2/9/4 1/10/4
f 3/11/5 7/6/5 5/8/5 1/12/5
f 8/5/6 4/13/6 2/14/6 6/7/6
usemtl Material.005
f 13/5/6 10/13/6 14/14/6
f 15/15/6 12/10/6 16/10/6
f 10/3/7 11/4/7 12/1/7 15/16/7 14/2/7
f 12/12/5 11/11/5 9/6/5 17/6/5 16/12/5
f 17/6/1 9/6/1 18/17/1
f 9/6/8 11/4/8 10/3/8 13/5/8 18/17/8
f 13/18/2 14/19/2 15/20/2 16/21/2 17/22/2 18/23/2
usemtl Material.006
f 23/5/6 20/13/6 24/14/6
f 25/15/1 22/10/1 26/10/1
f 20/3/9 21/4/9 22/1/9 25/16/9 24/2/9
f 22/12/5 21/11/5 19/6/5 27/6/5 26/12/5
f 27/6/6 19/6/6 28/17/6
f 19/6/10 21/4/10 20/3/10 23/5/10 28/17/10
f 23/18/4 24/19/4 25/20/4 26/21/4 27/22/4 28/23/4
